<svg width="255" height="255" viewBox="0 0 255 255" fill="none" xmlns="http://www.w3.org/2000/svg">
<g clip-path="url(#paint0_diamond_32_163_clip_path)" data-figma-skip-parse="true"><g transform="matrix(0.093914 0.189393 0.189192 -0.0939059 64.7677 61.2087)"><rect x="0" y="0" width="1125.91" height="840.033" fill="url(#paint0_diamond_32_163)" opacity="1" shape-rendering="crispEdges"/><rect x="0" y="0" width="1125.91" height="840.033" transform="scale(1 -1)" fill="url(#paint0_diamond_32_163)" opacity="1" shape-rendering="crispEdges"/><rect x="0" y="0" width="1125.91" height="840.033" transform="scale(-1 1)" fill="url(#paint0_diamond_32_163)" opacity="1" shape-rendering="crispEdges"/><rect x="0" y="0" width="1125.91" height="840.033" transform="scale(-1)" fill="url(#paint0_diamond_32_163)" opacity="1" shape-rendering="crispEdges"/></g></g><path d="M104.295 2.14224C103.304 2.32966 102.085 2.55014 101.587 2.6335C101.088 2.71587 98.5735 3.31622 95.9974 3.96799C93.4223 4.61951 90.8373 5.31873 90.2544 5.52252C89.6717 5.7273 88.4092 6.14698 87.4495 6.45768C86.4896 6.7674 84.8394 7.33356 83.7829 7.71735C82.7262 8.10016 81.1975 8.67728 80.3851 9.00176C79.5735 9.32502 78.206 9.8882 77.3465 10.2542C76.488 10.6199 74.9606 11.2965 73.9522 11.7573C72.945 12.2188 71.2829 13.0171 70.2597 13.5311C69.2368 14.0461 67.6326 14.8821 66.6938 15.3892C65.7561 15.897 64.2067 16.7663 63.2516 17.3206C62.2965 17.875 60.6596 18.8623 59.6143 19.5153C58.569 20.1684 56.7888 21.3342 55.6586 22.1067C54.5282 22.8782 52.8088 24.0968 51.8376 24.8139C50.8666 25.532 49.3447 26.6895 48.4546 27.387C47.5654 28.0841 45.5811 29.7445 44.0452 31.0769C42.5102 32.409 40.6267 34.094 39.8596 34.8209C39.0937 35.5485 37.7152 36.9016 36.7978 37.8287C35.8803 38.7559 34.1181 40.6358 32.8806 42.0064C31.6443 43.3776 30.0015 45.2648 29.2304 46.2018C28.4602 47.1386 27.2798 48.6175 26.6075 49.4893C25.9359 50.3599 24.7761 51.9196 24.0303 52.9552C23.2851 53.9896 22.2979 55.3949 21.8376 56.078C21.3773 56.7611 20.2612 58.4914 19.3575 59.9236C18.4538 61.3558 17.0643 63.7036 16.2687 65.1397C15.4731 66.5758 14.5002 68.3777 14.106 69.1426C13.712 69.9086 12.9508 71.4504 12.4153 72.5698C11.8798 73.6893 11.0703 75.4568 10.6155 76.4978C10.1617 77.5386 9.42303 79.3121 8.97514 80.4375C8.52652 81.5642 7.78166 83.5515 7.31925 84.854C6.85782 86.1563 6.17974 88.1749 5.8137 89.3372C5.44668 90.4997 4.90301 92.342 4.6039 93.4294C4.30601 94.5175 3.87294 96.1645 3.64269 97.0903C3.41245 98.016 2.95054 100.096 2.61598 101.714C2.28142 103.331 1.84874 105.64 1.65537 106.845C1.46101 108.051 1.1904 109.894 1.05383 110.94C0.91753 111.986 0.716445 113.74 0.606573 114.837C0.497675 115.933 0.349589 117.722 0.277144 118.809C0.204702 119.896 0.118215 121.502 0.0840245 122.378C0.0508248 123.253 0.0142699 124.965 0.0032579 126.181C-0.00777078 127.398 0.00766465 129.308 0.0380317 130.428C0.0683859 131.548 0.140344 133.302 0.199024 134.327C0.257706 135.352 0.376839 137.024 0.463103 138.042C0.550343 139.06 0.720577 140.743 0.840263 141.781C0.960909 142.819 1.18585 144.535 1.34019 145.593C1.49451 146.652 1.78169 148.423 1.97747 149.528C2.17325 150.634 2.56153 152.615 2.84043 153.931C3.11931 155.246 3.63691 157.454 3.99092 158.838C4.34494 160.221 4.9512 162.406 5.33847 163.694C5.72572 164.982 6.33665 166.906 6.69599 167.97C7.05533 169.034 7.65383 170.725 8.02687 171.727C8.3999 172.73 9.02681 174.343 9.4194 175.311C9.81295 176.279 10.4719 177.837 10.8842 178.772C11.2976 179.706 11.996 181.23 12.4369 182.157C12.8778 183.085 13.6575 184.659 14.1684 185.655C14.6792 186.65 15.5718 188.313 16.1511 189.35C16.7312 190.387 17.6239 191.931 18.1357 192.783C18.6485 193.634 19.5074 195.022 20.0448 195.867C20.5832 196.711 21.5332 198.147 22.1553 199.057C22.7785 199.966 23.7973 201.409 24.4194 202.26C25.0417 203.113 26.1639 204.598 26.9134 205.563C27.6618 206.527 29.1503 208.344 30.2206 209.602C31.291 210.86 32.6951 212.463 33.3416 213.164C33.9882 213.866 35.1594 215.103 35.943 215.914C36.7278 216.725 38.0893 218.079 38.9686 218.922C39.8468 219.766 41.4334 221.228 42.4913 222.171C43.5502 223.114 45.0703 224.427 45.8686 225.09C46.6679 225.752 48.0983 226.899 49.0465 227.639C49.9947 228.379 51.6414 229.613 52.7069 230.38C53.7715 231.148 55.2278 232.171 55.9409 232.652C56.655 233.134 58.3738 234.247 59.7614 235.125C61.149 236.002 63.4953 237.394 64.9761 238.217C66.4568 239.04 68.4289 240.101 69.3585 240.576C70.2882 241.05 71.855 241.82 72.8404 242.287C73.826 242.754 75.4301 243.485 76.4056 243.913C77.3809 244.34 79.1004 245.058 80.2258 245.51C81.3522 245.962 83.6995 246.828 85.4424 247.437C87.1861 248.045 89.6347 248.847 90.8847 249.22C92.1347 249.592 93.9936 250.117 95.0149 250.387C96.0369 250.656 98.4982 251.23 100.484 251.661C102.471 252.092 105.059 252.604 106.234 252.798C107.41 252.993 109.472 253.297 110.816 253.475C112.16 253.652 114.276 253.891 115.518 254.008C116.76 254.123 118.711 254.27 119.853 254.335C120.996 254.399 122.833 254.475 123.937 254.502C125.041 254.53 126.818 254.548 127.884 254.543C128.951 254.537 130.76 254.5 131.904 254.459C133.048 254.419 134.751 254.333 135.687 254.269C136.624 254.205 138.265 254.068 139.335 253.965C140.406 253.861 142.014 253.686 142.91 253.577C143.806 253.466 145.447 253.236 146.558 253.065C147.669 252.893 149.388 252.598 150.379 252.408C151.37 252.22 152.679 251.982 153.288 251.882C153.898 251.78 156.402 251.185 158.854 250.557C161.306 249.93 163.822 249.241 164.446 249.027C165.069 248.812 166.343 248.388 167.275 248.085C168.208 247.781 169.836 247.221 170.893 246.838C171.949 246.456 173.65 245.809 174.672 245.403C175.694 244.996 177.422 244.274 178.512 243.797C179.603 243.32 181.274 242.56 182.226 242.106C183.178 241.653 184.854 240.818 185.95 240.252C187.047 239.684 188.728 238.78 189.687 238.243C190.646 237.704 192.29 236.743 193.34 236.108C194.39 235.472 196.018 234.45 196.958 233.837C197.898 233.224 199.389 232.219 200.27 231.603C201.152 230.988 202.666 229.891 203.636 229.167C204.605 228.443 206.163 227.238 207.097 226.491C208.032 225.743 209.838 224.219 211.112 223.104C212.385 221.989 214.093 220.444 214.905 219.671C215.717 218.897 217.17 217.467 218.133 216.493C219.096 215.518 220.821 213.676 221.966 212.398C223.112 211.121 224.765 209.208 225.641 208.145C226.516 207.084 227.978 205.227 228.889 204.019C229.8 202.812 231.012 201.155 231.582 200.337C232.153 199.52 232.994 198.288 233.453 197.598C233.911 196.909 234.936 195.298 235.73 194.019C236.523 192.74 237.726 190.701 238.403 189.487C239.079 188.274 240.039 186.491 240.537 185.527C241.034 184.562 241.875 182.857 242.407 181.738C242.938 180.62 243.733 178.88 244.172 177.872C244.611 176.863 245.337 175.118 245.784 173.992C246.23 172.867 246.999 170.802 247.489 169.405C247.981 168.008 248.631 166.069 248.934 165.095C249.236 164.121 249.695 162.586 249.952 161.682C250.209 160.779 250.684 158.978 251.007 157.682C251.331 156.386 251.811 154.277 252.073 152.996C252.335 151.716 252.687 149.876 252.856 148.908C253.025 147.94 253.301 146.167 253.47 144.968C253.639 143.769 253.872 141.913 253.99 140.842C254.107 139.772 254.287 137.693 254.392 136.221C254.495 134.75 254.612 132.475 254.65 131.164C254.69 129.854 254.716 127.838 254.709 126.684C254.702 125.529 254.672 123.835 254.64 122.919C254.609 122.002 254.528 120.368 254.459 119.287C254.39 118.207 254.252 116.468 254.152 115.425C254.053 114.382 253.878 112.772 253.763 111.847C253.648 110.923 253.43 109.324 253.278 108.294C253.126 107.264 252.988 106.365 252.972 106.297C252.947 106.198 236.571 110.362 89.8893 147.892L84.5904 127.182L166.116 106.323C231.272 89.6522 247.636 85.439 247.61 85.3406C247.591 85.2729 247.28 84.4183 246.919 83.4421C246.558 82.4659 245.981 80.9585 245.638 80.0923C245.295 79.2261 244.675 77.7295 244.261 76.7669C243.848 75.804 243.133 74.2132 242.676 73.2323C242.217 72.2517 241.503 70.7793 241.09 69.9604C240.678 69.1412 239.891 67.6404 239.342 66.6249C238.794 65.6094 237.803 63.8539 237.139 62.723C236.476 61.5928 235.28 59.6522 234.483 58.4114C233.685 57.1709 232.528 55.4338 231.911 54.5512C231.294 53.6689 230.198 52.1527 229.474 51.1821C228.75 50.2115 227.656 48.789 227.043 48.0213C226.43 47.2535 225.238 45.8091 224.392 44.8118C223.547 43.8144 222.114 42.1953 221.208 41.2135C220.301 40.2318 219.02 38.8817 218.36 38.2119C217.701 37.5421 216.561 36.4152 215.829 35.7073C215.096 34.9997 213.594 33.6103 212.491 32.6209C211.39 31.6313 209.725 30.1902 208.792 29.4169C207.86 28.6447 206.385 27.4608 205.515 26.7879C204.646 26.1151 203.114 24.97 202.11 24.2443C201.107 23.5186 199.55 22.4279 198.65 21.8197C197.75 21.2114 196.052 20.1097 194.877 19.3703C193.7 18.6312 191.665 17.4201 190.356 16.6792C189.045 15.9386 187.373 15.0184 186.639 14.6334C185.905 14.2485 184.548 13.5597 183.623 13.1039C182.698 12.6471 181.14 11.91 180.16 11.4661C179.18 11.0212 177.717 10.3754 176.906 10.0311C176.097 9.68653 174.49 9.03855 173.336 8.58989C172.182 8.14221 170.125 7.39095 168.763 6.92191C167.401 6.45187 165.443 5.81266 164.41 5.50013C163.377 5.18859 161.468 4.64541 160.165 4.29356C158.863 3.94172 156.445 3.35505 154.793 2.98974C153.141 2.62444 150.825 2.15672 149.646 1.94989C148.466 1.74305 146.522 1.43459 145.324 1.26513C144.126 1.09567 142.271 0.861048 141.202 0.744729C140.133 0.627425 138.343 0.462325 137.224 0.375649C136.105 0.28996 134.186 0.175656 132.96 0.121639C131.734 0.0686107 129.831 0.0154491 128.731 0.00372353C127.631 -0.00701554 125.723 0.00749774 124.488 0.0364771C123.254 0.0664408 121.383 0.138525 120.331 0.198637C119.278 0.257762 117.447 0.393335 116.261 0.49908C115.076 0.604826 113.213 0.801051 112.122 0.935184C111.031 1.06932 109.228 1.31929 108.118 1.49105C107.007 1.66281 105.287 1.9558 104.295 2.14224Z" data-figma-gradient-fill="{&#34;type&#34;:&#34;GRADIENT_DIAMOND&#34;,&#34;stops&#34;:[{&#34;color&#34;:{&#34;r&#34;:0.088979363441467285,&#34;g&#34;:0.70120084285736084,&#34;b&#34;:0.66446757316589355,&#34;a&#34;:1.0},&#34;position&#34;:0.0},{&#34;color&#34;:{&#34;r&#34;:0.034518480300903320,&#34;g&#34;:0.27018952369689941,&#34;b&#34;:0.87620085477828979,&#34;a&#34;:1.0},&#34;position&#34;:1.0}],&#34;stopsVar&#34;:[],&#34;transform&#34;:{&#34;m00&#34;:187.82792663574219,&#34;m01&#34;:378.38467407226562,&#34;m02&#34;:-218.33859252929688,&#34;m10&#34;:378.78546142578125,&#34;m11&#34;:-187.81170654296875,&#34;m12&#34;:-34.278133392333984},&#34;opacity&#34;:1.0,&#34;blendMode&#34;:&#34;NORMAL&#34;,&#34;visible&#34;:true}"/>
<defs>
<clipPath id="paint0_diamond_32_163_clip_path"><path d="M104.295 2.14224C103.304 2.32966 102.085 2.55014 101.587 2.6335C101.088 2.71587 98.5735 3.31622 95.9974 3.96799C93.4223 4.61951 90.8373 5.31873 90.2544 5.52252C89.6717 5.7273 88.4092 6.14698 87.4495 6.45768C86.4896 6.7674 84.8394 7.33356 83.7829 7.71735C82.7262 8.10016 81.1975 8.67728 80.3851 9.00176C79.5735 9.32502 78.206 9.8882 77.3465 10.2542C76.488 10.6199 74.9606 11.2965 73.9522 11.7573C72.945 12.2188 71.2829 13.0171 70.2597 13.5311C69.2368 14.0461 67.6326 14.8821 66.6938 15.3892C65.7561 15.897 64.2067 16.7663 63.2516 17.3206C62.2965 17.875 60.6596 18.8623 59.6143 19.5153C58.569 20.1684 56.7888 21.3342 55.6586 22.1067C54.5282 22.8782 52.8088 24.0968 51.8376 24.8139C50.8666 25.532 49.3447 26.6895 48.4546 27.387C47.5654 28.0841 45.5811 29.7445 44.0452 31.0769C42.5102 32.409 40.6267 34.094 39.8596 34.8209C39.0937 35.5485 37.7152 36.9016 36.7978 37.8287C35.8803 38.7559 34.1181 40.6358 32.8806 42.0064C31.6443 43.3776 30.0015 45.2648 29.2304 46.2018C28.4602 47.1386 27.2798 48.6175 26.6075 49.4893C25.9359 50.3599 24.7761 51.9196 24.0303 52.9552C23.2851 53.9896 22.2979 55.3949 21.8376 56.078C21.3773 56.7611 20.2612 58.4914 19.3575 59.9236C18.4538 61.3558 17.0643 63.7036 16.2687 65.1397C15.4731 66.5758 14.5002 68.3777 14.106 69.1426C13.712 69.9086 12.9508 71.4504 12.4153 72.5698C11.8798 73.6893 11.0703 75.4568 10.6155 76.4978C10.1617 77.5386 9.42303 79.3121 8.97514 80.4375C8.52652 81.5642 7.78166 83.5515 7.31925 84.854C6.85782 86.1563 6.17974 88.1749 5.8137 89.3372C5.44668 90.4997 4.90301 92.342 4.6039 93.4294C4.30601 94.5175 3.87294 96.1645 3.64269 97.0903C3.41245 98.016 2.95054 100.096 2.61598 101.714C2.28142 103.331 1.84874 105.64 1.65537 106.845C1.46101 108.051 1.1904 109.894 1.05383 110.94C0.91753 111.986 0.716445 113.74 0.606573 114.837C0.497675 115.933 0.349589 117.722 0.277144 118.809C0.204702 119.896 0.118215 121.502 0.0840245 122.378C0.0508248 123.253 0.0142699 124.965 0.0032579 126.181C-0.00777078 127.398 0.00766465 129.308 0.0380317 130.428C0.0683859 131.548 0.140344 133.302 0.199024 134.327C0.257706 135.352 0.376839 137.024 0.463103 138.042C0.550343 139.06 0.720577 140.743 0.840263 141.781C0.960909 142.819 1.18585 144.535 1.34019 145.593C1.49451 146.652 1.78169 148.423 1.97747 149.528C2.17325 150.634 2.56153 152.615 2.84043 153.931C3.11931 155.246 3.63691 157.454 3.99092 158.838C4.34494 160.221 4.9512 162.406 5.33847 163.694C5.72572 164.982 6.33665 166.906 6.69599 167.97C7.05533 169.034 7.65383 170.725 8.02687 171.727C8.3999 172.73 9.02681 174.343 9.4194 175.311C9.81295 176.279 10.4719 177.837 10.8842 178.772C11.2976 179.706 11.996 181.23 12.4369 182.157C12.8778 183.085 13.6575 184.659 14.1684 185.655C14.6792 186.65 15.5718 188.313 16.1511 189.35C16.7312 190.387 17.6239 191.931 18.1357 192.783C18.6485 193.634 19.5074 195.022 20.0448 195.867C20.5832 196.711 21.5332 198.147 22.1553 199.057C22.7785 199.966 23.7973 201.409 24.4194 202.26C25.0417 203.113 26.1639 204.598 26.9134 205.563C27.6618 206.527 29.1503 208.344 30.2206 209.602C31.291 210.86 32.6951 212.463 33.3416 213.164C33.9882 213.866 35.1594 215.103 35.943 215.914C36.7278 216.725 38.0893 218.079 38.9686 218.922C39.8468 219.766 41.4334 221.228 42.4913 222.171C43.5502 223.114 45.0703 224.427 45.8686 225.09C46.6679 225.752 48.0983 226.899 49.0465 227.639C49.9947 228.379 51.6414 229.613 52.7069 230.38C53.7715 231.148 55.2278 232.171 55.9409 232.652C56.655 233.134 58.3738 234.247 59.7614 235.125C61.149 236.002 63.4953 237.394 64.9761 238.217C66.4568 239.04 68.4289 240.101 69.3585 240.576C70.2882 241.05 71.855 241.82 72.8404 242.287C73.826 242.754 75.4301 243.485 76.4056 243.913C77.3809 244.34 79.1004 245.058 80.2258 245.51C81.3522 245.962 83.6995 246.828 85.4424 247.437C87.1861 248.045 89.6347 248.847 90.8847 249.22C92.1347 249.592 93.9936 250.117 95.0149 250.387C96.0369 250.656 98.4982 251.23 100.484 251.661C102.471 252.092 105.059 252.604 106.234 252.798C107.41 252.993 109.472 253.297 110.816 253.475C112.16 253.652 114.276 253.891 115.518 254.008C116.76 254.123 118.711 254.27 119.853 254.335C120.996 254.399 122.833 254.475 123.937 254.502C125.041 254.53 126.818 254.548 127.884 254.543C128.951 254.537 130.76 254.5 131.904 254.459C133.048 254.419 134.751 254.333 135.687 254.269C136.624 254.205 138.265 254.068 139.335 253.965C140.406 253.861 142.014 253.686 142.91 253.577C143.806 253.466 145.447 253.236 146.558 253.065C147.669 252.893 149.388 252.598 150.379 252.408C151.37 252.22 152.679 251.982 153.288 251.882C153.898 251.78 156.402 251.185 158.854 250.557C161.306 249.93 163.822 249.241 164.446 249.027C165.069 248.812 166.343 248.388 167.275 248.085C168.208 247.781 169.836 247.221 170.893 246.838C171.949 246.456 173.65 245.809 174.672 245.403C175.694 244.996 177.422 244.274 178.512 243.797C179.603 243.32 181.274 242.56 182.226 242.106C183.178 241.653 184.854 240.818 185.95 240.252C187.047 239.684 188.728 238.78 189.687 238.243C190.646 237.704 192.29 236.743 193.34 236.108C194.39 235.472 196.018 234.45 196.958 233.837C197.898 233.224 199.389 232.219 200.27 231.603C201.152 230.988 202.666 229.891 203.636 229.167C204.605 228.443 206.163 227.238 207.097 226.491C208.032 225.743 209.838 224.219 211.112 223.104C212.385 221.989 214.093 220.444 214.905 219.671C215.717 218.897 217.17 217.467 218.133 216.493C219.096 215.518 220.821 213.676 221.966 212.398C223.112 211.121 224.765 209.208 225.641 208.145C226.516 207.084 227.978 205.227 228.889 204.019C229.8 202.812 231.012 201.155 231.582 200.337C232.153 199.52 232.994 198.288 233.453 197.598C233.911 196.909 234.936 195.298 235.73 194.019C236.523 192.74 237.726 190.701 238.403 189.487C239.079 188.274 240.039 186.491 240.537 185.527C241.034 184.562 241.875 182.857 242.407 181.738C242.938 180.62 243.733 178.88 244.172 177.872C244.611 176.863 245.337 175.118 245.784 173.992C246.23 172.867 246.999 170.802 247.489 169.405C247.981 168.008 248.631 166.069 248.934 165.095C249.236 164.121 249.695 162.586 249.952 161.682C250.209 160.779 250.684 158.978 251.007 157.682C251.331 156.386 251.811 154.277 252.073 152.996C252.335 151.716 252.687 149.876 252.856 148.908C253.025 147.94 253.301 146.167 253.47 144.968C253.639 143.769 253.872 141.913 253.99 140.842C254.107 139.772 254.287 137.693 254.392 136.221C254.495 134.75 254.612 132.475 254.65 131.164C254.69 129.854 254.716 127.838 254.709 126.684C254.702 125.529 254.672 123.835 254.64 122.919C254.609 122.002 254.528 120.368 254.459 119.287C254.39 118.207 254.252 116.468 254.152 115.425C254.053 114.382 253.878 112.772 253.763 111.847C253.648 110.923 253.43 109.324 253.278 108.294C253.126 107.264 252.988 106.365 252.972 106.297C252.947 106.198 236.571 110.362 89.8893 147.892L84.5904 127.182L166.116 106.323C231.272 89.6522 247.636 85.439 247.61 85.3406C247.591 85.2729 247.28 84.4183 246.919 83.4421C246.558 82.4659 245.981 80.9585 245.638 80.0923C245.295 79.2261 244.675 77.7295 244.261 76.7669C243.848 75.804 243.133 74.2132 242.676 73.2323C242.217 72.2517 241.503 70.7793 241.09 69.9604C240.678 69.1412 239.891 67.6404 239.342 66.6249C238.794 65.6094 237.803 63.8539 237.139 62.723C236.476 61.5928 235.28 59.6522 234.483 58.4114C233.685 57.1709 232.528 55.4338 231.911 54.5512C231.294 53.6689 230.198 52.1527 229.474 51.1821C228.75 50.2115 227.656 48.789 227.043 48.0213C226.43 47.2535 225.238 45.8091 224.392 44.8118C223.547 43.8144 222.114 42.1953 221.208 41.2135C220.301 40.2318 219.02 38.8817 218.36 38.2119C217.701 37.5421 216.561 36.4152 215.829 35.7073C215.096 34.9997 213.594 33.6103 212.491 32.6209C211.39 31.6313 209.725 30.1902 208.792 29.4169C207.86 28.6447 206.385 27.4608 205.515 26.7879C204.646 26.1151 203.114 24.97 202.11 24.2443C201.107 23.5186 199.55 22.4279 198.65 21.8197C197.75 21.2114 196.052 20.1097 194.877 19.3703C193.7 18.6312 191.665 17.4201 190.356 16.6792C189.045 15.9386 187.373 15.0184 186.639 14.6334C185.905 14.2485 184.548 13.5597 183.623 13.1039C182.698 12.6471 181.14 11.91 180.16 11.4661C179.18 11.0212 177.717 10.3754 176.906 10.0311C176.097 9.68653 174.49 9.03855 173.336 8.58989C172.182 8.14221 170.125 7.39095 168.763 6.92191C167.401 6.45187 165.443 5.81266 164.41 5.50013C163.377 5.18859 161.468 4.64541 160.165 4.29356C158.863 3.94172 156.445 3.35505 154.793 2.98974C153.141 2.62444 150.825 2.15672 149.646 1.94989C148.466 1.74305 146.522 1.43459 145.324 1.26513C144.126 1.09567 142.271 0.861048 141.202 0.744729C140.133 0.627425 138.343 0.462325 137.224 0.375649C136.105 0.28996 134.186 0.175656 132.96 0.121639C131.734 0.0686107 129.831 0.0154491 128.731 0.00372353C127.631 -0.00701554 125.723 0.00749774 124.488 0.0364771C123.254 0.0664408 121.383 0.138525 120.331 0.198637C119.278 0.257762 117.447 0.393335 116.261 0.49908C115.076 0.604826 113.213 0.801051 112.122 0.935184C111.031 1.06932 109.228 1.31929 108.118 1.49105C107.007 1.66281 105.287 1.9558 104.295 2.14224Z"/></clipPath><linearGradient id="paint0_diamond_32_163" x1="0" y1="0" x2="500" y2="500" gradientUnits="userSpaceOnUse">
<stop stop-color="#17B3A9"/>
<stop offset="1" stop-color="#0945DF"/>
</linearGradient>
</defs>
</svg>
