<svg width="251" height="275" viewBox="0 0 251 275" fill="none" xmlns="http://www.w3.org/2000/svg">
<g clip-path="url(#paint0_diamond_32_164_clip_path)" data-figma-skip-parse="true"><g transform="matrix(-0.0224974 0.195955 -0.185537 -0.0266785 157.657 64.8111)"><rect x="0" y="0" width="1164.6" height="933.808" fill="url(#paint0_diamond_32_164)" opacity="1" shape-rendering="crispEdges"/><rect x="0" y="0" width="1164.6" height="933.808" transform="scale(1 -1)" fill="url(#paint0_diamond_32_164)" opacity="1" shape-rendering="crispEdges"/><rect x="0" y="0" width="1164.6" height="933.808" transform="scale(-1 1)" fill="url(#paint0_diamond_32_164)" opacity="1" shape-rendering="crispEdges"/><rect x="0" y="0" width="1164.6" height="933.808" transform="scale(-1)" fill="url(#paint0_diamond_32_164)" opacity="1" shape-rendering="crispEdges"/></g></g><path d="M129.261 9.93616L206.748 0.0649951C211.131 -0.493337 215.137 2.607 215.695 6.98981L219.981 40.6301C220.539 45.013 217.439 49.0186 213.056 49.577L143.505 58.438C139.122 58.9964 136.022 63.002 136.58 67.3849L140.405 97.403C140.963 101.786 144.969 104.886 149.351 104.328L164.262 102.428C168.645 101.87 172.651 104.97 173.209 109.353L177.957 146.618C178.515 151.001 182.521 154.101 186.904 153.543L194.346 152.595C198.729 152.036 201.83 148.031 201.271 143.648L196.564 106.702C196.006 102.319 199.106 98.3138 203.489 97.7554L224.64 95.0607C229.023 94.5023 233.029 97.6026 233.587 101.985L250.91 237.955C251.469 242.338 248.368 246.343 243.985 246.902L168.725 256.49C164.342 257.048 160.336 253.948 159.778 249.565L155.436 215.491C154.878 211.108 150.872 208.008 146.49 208.566L111.104 213.075C106.721 213.633 103.621 217.639 104.179 222.021L108.52 256.096C109.078 260.478 105.978 264.484 101.595 265.043L26.3344 274.631C21.9516 275.189 17.9459 272.089 17.3875 267.706L0.0647137 131.737C-0.493672 127.354 2.60667 123.348 6.98952 122.79L28.1399 120.095C32.5227 119.537 36.5284 122.637 37.0868 127.02L41.7937 163.966C42.3521 168.348 46.3578 171.449 50.7406 170.89L55.1881 170.324C59.5709 169.765 62.6712 165.76 62.1129 161.377L57.3652 124.112C56.8068 119.729 59.9071 115.723 64.29 115.165L82.2173 112.881C86.6002 112.322 89.7005 108.317 89.1422 103.934L79.0097 24.403C78.4513 20.0201 81.5517 16.0145 85.9345 15.4561L129.261 9.93616Z" data-figma-gradient-fill="{&#34;type&#34;:&#34;GRADIENT_DIAMOND&#34;,&#34;stops&#34;:[{&#34;color&#34;:{&#34;r&#34;:0.56119698286056519,&#34;g&#34;:0.90409445762634277,&#34;b&#34;:0.29177749156951904,&#34;a&#34;:1.0},&#34;position&#34;:0.0},{&#34;color&#34;:{&#34;r&#34;:0.26666671037673950,&#34;g&#34;:0.90196079015731812,&#34;b&#34;:0.71137243509292603,&#34;a&#34;:1.0},&#34;position&#34;:1.0}],&#34;stopsVar&#34;:[],&#34;transform&#34;:{&#34;m00&#34;:-44.994842529296875,&#34;m01&#34;:-371.07324218750,&#34;m02&#34;:365.69134521484375,&#34;m10&#34;:391.91033935546875,&#34;m11&#34;:-53.357021331787109,&#34;m12&#34;:-104.46551513671875},&#34;opacity&#34;:1.0,&#34;blendMode&#34;:&#34;NORMAL&#34;,&#34;visible&#34;:true}"/>
<defs>
<clipPath id="paint0_diamond_32_164_clip_path"><path d="M129.261 9.93616L206.748 0.0649951C211.131 -0.493337 215.137 2.607 215.695 6.98981L219.981 40.6301C220.539 45.013 217.439 49.0186 213.056 49.577L143.505 58.438C139.122 58.9964 136.022 63.002 136.58 67.3849L140.405 97.403C140.963 101.786 144.969 104.886 149.351 104.328L164.262 102.428C168.645 101.87 172.651 104.97 173.209 109.353L177.957 146.618C178.515 151.001 182.521 154.101 186.904 153.543L194.346 152.595C198.729 152.036 201.83 148.031 201.271 143.648L196.564 106.702C196.006 102.319 199.106 98.3138 203.489 97.7554L224.64 95.0607C229.023 94.5023 233.029 97.6026 233.587 101.985L250.91 237.955C251.469 242.338 248.368 246.343 243.985 246.902L168.725 256.49C164.342 257.048 160.336 253.948 159.778 249.565L155.436 215.491C154.878 211.108 150.872 208.008 146.49 208.566L111.104 213.075C106.721 213.633 103.621 217.639 104.179 222.021L108.52 256.096C109.078 260.478 105.978 264.484 101.595 265.043L26.3344 274.631C21.9516 275.189 17.9459 272.089 17.3875 267.706L0.0647137 131.737C-0.493672 127.354 2.60667 123.348 6.98952 122.79L28.1399 120.095C32.5227 119.537 36.5284 122.637 37.0868 127.02L41.7937 163.966C42.3521 168.348 46.3578 171.449 50.7406 170.89L55.1881 170.324C59.5709 169.765 62.6712 165.76 62.1129 161.377L57.3652 124.112C56.8068 119.729 59.9071 115.723 64.29 115.165L82.2173 112.881C86.6002 112.322 89.7005 108.317 89.1422 103.934L79.0097 24.403C78.4513 20.0201 81.5517 16.0145 85.9345 15.4561L129.261 9.93616Z"/></clipPath><linearGradient id="paint0_diamond_32_164" x1="0" y1="0" x2="500" y2="500" gradientUnits="userSpaceOnUse">
<stop stop-color="#8FE74A"/>
<stop offset="1" stop-color="#44E6B5"/>
</linearGradient>
</defs>
</svg>
