<svg width="2575" height="715" viewBox="0 0 2575 715" fill="none" xmlns="http://www.w3.org/2000/svg">
<g style="mix-blend-mode:plus-lighter" opacity="0.1">
<g filter="url(#filter0_df_32_174)">
<path d="M31.1504 332.983H2554.77" stroke="white" stroke-miterlimit="10" stroke-linecap="round" stroke-dasharray="0.01 2"/>
<path d="M31.1504 176.241H2554.77" stroke="white" stroke-miterlimit="10" stroke-linecap="round" stroke-dasharray="0.01 2"/>
<path d="M31.1504 490.35H2554.77" stroke="white" stroke-miterlimit="10" stroke-linecap="round" stroke-dasharray="0.01 2"/>
<path d="M30.543 647.092H2554.16" stroke="white" stroke-width="0.75" stroke-miterlimit="10" stroke-linecap="round" stroke-dasharray="0.5 0.5"/>
<path d="M31.1504 19.5H2554.77" stroke="white" stroke-miterlimit="10" stroke-linecap="round" stroke-dasharray="0.01 2"/>
<path d="M19 646.464H66.9937" stroke="white" stroke-miterlimit="10"/>
<path d="M19 332.982H66.9937" stroke="white" stroke-miterlimit="10"/>
<path d="M19 19.5H66.9937" stroke="white" stroke-miterlimit="10"/>
<path d="M19 42.0708H48.7682" stroke="white" stroke-miterlimit="10"/>
<path d="M19 64.0146H48.7682" stroke="white" stroke-miterlimit="10"/>
<path d="M19 86.5854H48.7682" stroke="white" stroke-miterlimit="10"/>
<path d="M19 109.156H48.7682" stroke="white" stroke-miterlimit="10"/>
<path d="M19 131.727H48.7682" stroke="white" stroke-miterlimit="10"/>
<path d="M19 153.67H48.7682" stroke="white" stroke-miterlimit="10"/>
<path d="M19 176.241H48.7682" stroke="white" stroke-miterlimit="10"/>
<path d="M19 198.812H48.7682" stroke="white" stroke-miterlimit="10"/>
<path d="M19 220.755H48.7682" stroke="white" stroke-miterlimit="10"/>
<path d="M19 243.327H48.7682" stroke="white" stroke-miterlimit="10"/>
<path d="M19 265.897H48.7682" stroke="white" stroke-miterlimit="10"/>
<path d="M19 288.468H48.7682" stroke="white" stroke-miterlimit="10"/>
<path d="M19 310.412H48.7682" stroke="white" stroke-miterlimit="10"/>
<path d="M19 355.553H48.7682" stroke="white" stroke-miterlimit="10"/>
<path d="M19 377.497H48.7682" stroke="white" stroke-miterlimit="10"/>
<path d="M19 400.068H48.7682" stroke="white" stroke-miterlimit="10"/>
<path d="M19 422.638H48.7682" stroke="white" stroke-miterlimit="10"/>
<path d="M19 445.209H48.7682" stroke="white" stroke-miterlimit="10"/>
<path d="M19 467.153H48.7682" stroke="white" stroke-miterlimit="10"/>
<path d="M19 489.723H48.7682" stroke="white" stroke-miterlimit="10"/>
<path d="M19 512.294H48.7682" stroke="white" stroke-miterlimit="10"/>
<path d="M19 534.238H48.7682" stroke="white" stroke-miterlimit="10"/>
<path d="M19 556.809H48.7682" stroke="white" stroke-miterlimit="10"/>
<path d="M19 579.379H48.7682" stroke="white" stroke-miterlimit="10"/>
<path d="M19 601.951H48.7682" stroke="white" stroke-miterlimit="10"/>
<path d="M19 623.894H48.7682" stroke="white" stroke-miterlimit="10"/>
<path d="M689.09 695.995V646.464" stroke="white" stroke-miterlimit="10"/>
<path d="M378.042 695.995V646.464" stroke="white" stroke-miterlimit="10"/>
<path d="M66.9941 695.995V646.464" stroke="white" stroke-miterlimit="10"/>
<path d="M89.4727 695.994V665.273" stroke="white" stroke-miterlimit="10"/>
<path d="M111.343 695.994V665.273" stroke="white" stroke-miterlimit="10"/>
<path d="M133.82 695.994V665.273" stroke="white" stroke-miterlimit="10"/>
<path d="M155.691 695.994V665.273" stroke="white" stroke-miterlimit="10"/>
<path d="M178.17 695.994V665.273" stroke="white" stroke-miterlimit="10"/>
<path d="M200.04 695.994V665.273" stroke="white" stroke-miterlimit="10"/>
<path d="M222.519 695.994V665.273" stroke="white" stroke-miterlimit="10"/>
<path d="M244.389 695.994V665.273" stroke="white" stroke-miterlimit="10"/>
<path d="M266.866 695.994V665.273" stroke="white" stroke-miterlimit="10"/>
<path d="M289.345 695.994V665.273" stroke="white" stroke-miterlimit="10"/>
<path d="M311.215 695.994V665.273" stroke="white" stroke-miterlimit="10"/>
<path d="M333.693 695.994V665.273" stroke="white" stroke-miterlimit="10"/>
<path d="M355.563 695.994V665.273" stroke="white" stroke-miterlimit="10"/>
<path d="M399.912 695.994V665.273" stroke="white" stroke-miterlimit="10"/>
<path d="M422.391 695.994V665.273" stroke="white" stroke-miterlimit="10"/>
<path d="M444.868 695.994V665.273" stroke="white" stroke-miterlimit="10"/>
<path d="M466.739 695.994V665.273" stroke="white" stroke-miterlimit="10"/>
<path d="M489.217 695.994V665.273" stroke="white" stroke-miterlimit="10"/>
<path d="M511.088 695.994V665.273" stroke="white" stroke-miterlimit="10"/>
<path d="M533.565 695.994V665.273" stroke="white" stroke-miterlimit="10"/>
<path d="M555.437 695.994V665.273" stroke="white" stroke-miterlimit="10"/>
<path d="M577.914 695.994V665.273" stroke="white" stroke-miterlimit="10"/>
<path d="M599.785 695.994V665.273" stroke="white" stroke-miterlimit="10"/>
<path d="M622.263 695.994V665.273" stroke="white" stroke-miterlimit="10"/>
<path d="M644.741 695.994V665.273" stroke="white" stroke-miterlimit="10"/>
<path d="M666.611 695.994V665.273" stroke="white" stroke-miterlimit="10"/>
<path d="M1310.58 695.995V646.464" stroke="white" stroke-miterlimit="10"/>
<path d="M1000.14 695.995V646.464" stroke="white" stroke-miterlimit="10"/>
<path d="M710.96 695.994V665.273" stroke="white" stroke-miterlimit="10"/>
<path d="M733.438 695.994V665.273" stroke="white" stroke-miterlimit="10"/>
<path d="M755.309 695.994V665.273" stroke="white" stroke-miterlimit="10"/>
<path d="M777.786 695.994V665.273" stroke="white" stroke-miterlimit="10"/>
<path d="M799.657 695.994V665.273" stroke="white" stroke-miterlimit="10"/>
<path d="M822.135 695.994V665.273" stroke="white" stroke-miterlimit="10"/>
<path d="M844.613 695.994V665.273" stroke="white" stroke-miterlimit="10"/>
<path d="M866.483 695.994V665.273" stroke="white" stroke-miterlimit="10"/>
<path d="M888.962 695.994V665.273" stroke="white" stroke-miterlimit="10"/>
<path d="M910.833 695.994V665.273" stroke="white" stroke-miterlimit="10"/>
<path d="M933.311 695.994V665.273" stroke="white" stroke-miterlimit="10"/>
<path d="M955.181 695.994V665.273" stroke="white" stroke-miterlimit="10"/>
<path d="M977.659 695.994V665.273" stroke="white" stroke-miterlimit="10"/>
<path d="M1022.01 695.994V665.273" stroke="white" stroke-miterlimit="10"/>
<path d="M1044.49 695.994V665.273" stroke="white" stroke-miterlimit="10"/>
<path d="M1066.36 695.994V665.273" stroke="white" stroke-miterlimit="10"/>
<path d="M1088.83 695.994V665.273" stroke="white" stroke-miterlimit="10"/>
<path d="M1110.71 695.994V665.273" stroke="white" stroke-miterlimit="10"/>
<path d="M1133.18 695.994V665.273" stroke="white" stroke-miterlimit="10"/>
<path d="M1155.05 695.994V665.273" stroke="white" stroke-miterlimit="10"/>
<path d="M1177.53 695.994V665.273" stroke="white" stroke-miterlimit="10"/>
<path d="M1200.01 695.994V665.273" stroke="white" stroke-miterlimit="10"/>
<path d="M1221.88 695.994V665.273" stroke="white" stroke-miterlimit="10"/>
<path d="M1244.36 695.994V665.273" stroke="white" stroke-miterlimit="10"/>
<path d="M1266.23 695.994V665.273" stroke="white" stroke-miterlimit="10"/>
<path d="M1288.71 695.994V665.273" stroke="white" stroke-miterlimit="10"/>
<path d="M1932.67 695.995V646.464" stroke="white" stroke-miterlimit="10"/>
<path d="M1621.62 695.995V646.464" stroke="white" stroke-miterlimit="10"/>
<path d="M1333.06 695.994V665.273" stroke="white" stroke-miterlimit="10"/>
<path d="M1354.93 695.994V665.273" stroke="white" stroke-miterlimit="10"/>
<path d="M1377.4 695.994V665.273" stroke="white" stroke-miterlimit="10"/>
<path d="M1399.88 695.994V665.273" stroke="white" stroke-miterlimit="10"/>
<path d="M1421.75 695.994V665.273" stroke="white" stroke-miterlimit="10"/>
<path d="M1444.23 695.994V665.273" stroke="white" stroke-miterlimit="10"/>
<path d="M1466.1 695.994V665.273" stroke="white" stroke-miterlimit="10"/>
<path d="M1488.58 695.994V665.273" stroke="white" stroke-miterlimit="10"/>
<path d="M1510.45 695.994V665.273" stroke="white" stroke-miterlimit="10"/>
<path d="M1532.93 695.994V665.273" stroke="white" stroke-miterlimit="10"/>
<path d="M1554.8 695.994V665.273" stroke="white" stroke-miterlimit="10"/>
<path d="M1577.28 695.994V665.273" stroke="white" stroke-miterlimit="10"/>
<path d="M1599.75 695.994V665.273" stroke="white" stroke-miterlimit="10"/>
<path d="M1644.1 695.994V665.273" stroke="white" stroke-miterlimit="10"/>
<path d="M1665.97 695.994V665.273" stroke="white" stroke-miterlimit="10"/>
<path d="M1688.45 695.994V665.273" stroke="white" stroke-miterlimit="10"/>
<path d="M1710.32 695.994V665.273" stroke="white" stroke-miterlimit="10"/>
<path d="M1732.8 695.994V665.273" stroke="white" stroke-miterlimit="10"/>
<path d="M1755.28 695.994V665.273" stroke="white" stroke-miterlimit="10"/>
<path d="M1777.15 695.994V665.273" stroke="white" stroke-miterlimit="10"/>
<path d="M1799.63 695.994V665.273" stroke="white" stroke-miterlimit="10"/>
<path d="M1821.5 695.994V665.273" stroke="white" stroke-miterlimit="10"/>
<path d="M1843.98 695.994V665.273" stroke="white" stroke-miterlimit="10"/>
<path d="M1865.85 695.994V665.273" stroke="white" stroke-miterlimit="10"/>
<path d="M1888.32 695.994V665.273" stroke="white" stroke-miterlimit="10"/>
<path d="M1910.19 695.994V665.273" stroke="white" stroke-miterlimit="10"/>
<path d="M2554.77 695.995V646.464" stroke="white" stroke-miterlimit="10"/>
<path d="M2243.72 695.995V646.464" stroke="white" stroke-miterlimit="10"/>
<path d="M1955.15 695.994V665.273" stroke="white" stroke-miterlimit="10"/>
<path d="M1977.02 695.994V665.273" stroke="white" stroke-miterlimit="10"/>
<path d="M1999.5 695.994V665.273" stroke="white" stroke-miterlimit="10"/>
<path d="M2021.37 695.994V665.273" stroke="white" stroke-miterlimit="10"/>
<path d="M2043.85 695.994V665.273" stroke="white" stroke-miterlimit="10"/>
<path d="M2065.72 695.994V665.273" stroke="white" stroke-miterlimit="10"/>
<path d="M2088.2 695.994V665.273" stroke="white" stroke-miterlimit="10"/>
<path d="M2110.07 695.994V665.273" stroke="white" stroke-miterlimit="10"/>
<path d="M2132.54 695.994V665.273" stroke="white" stroke-miterlimit="10"/>
<path d="M2155.02 695.994V665.273" stroke="white" stroke-miterlimit="10"/>
<path d="M2176.89 695.994V665.273" stroke="white" stroke-miterlimit="10"/>
<path d="M2199.37 695.994V665.273" stroke="white" stroke-miterlimit="10"/>
<path d="M2221.24 695.994V665.273" stroke="white" stroke-miterlimit="10"/>
<path d="M2265.59 695.994V665.273" stroke="white" stroke-miterlimit="10"/>
<path d="M2288.07 695.994V665.273" stroke="white" stroke-miterlimit="10"/>
<path d="M2309.94 695.994V665.273" stroke="white" stroke-miterlimit="10"/>
<path d="M2332.42 695.994V665.273" stroke="white" stroke-miterlimit="10"/>
<path d="M2354.9 695.994V665.273" stroke="white" stroke-miterlimit="10"/>
<path d="M2376.77 695.994V665.273" stroke="white" stroke-miterlimit="10"/>
<path d="M2399.24 695.994V665.273" stroke="white" stroke-miterlimit="10"/>
<path d="M2421.11 695.994V665.273" stroke="white" stroke-miterlimit="10"/>
<path d="M2443.59 695.994V665.273" stroke="white" stroke-miterlimit="10"/>
<path d="M2465.46 695.994V665.273" stroke="white" stroke-miterlimit="10"/>
<path d="M2487.94 695.994V665.273" stroke="white" stroke-miterlimit="10"/>
<path d="M2510.42 695.994V665.273" stroke="white" stroke-miterlimit="10"/>
<path d="M2532.29 695.994V665.273" stroke="white" stroke-miterlimit="10"/>
<path d="M66.9941 38.3091V627.656" stroke="white" stroke-miterlimit="10" stroke-linecap="round" stroke-dasharray="0.01 2"/>
<path d="M2554.77 38.3091V627.656" stroke="white" stroke-miterlimit="10" stroke-linecap="round" stroke-dasharray="0.01 2"/>
<path d="M2243.72 38.3091V627.656" stroke="white" stroke-miterlimit="10" stroke-linecap="round" stroke-dasharray="0.01 2"/>
<path d="M1932.67 38.3091V627.656" stroke="white" stroke-miterlimit="10" stroke-linecap="round" stroke-dasharray="0.01 2"/>
<path d="M1621.62 38.3091V627.656" stroke="white" stroke-miterlimit="10" stroke-linecap="round" stroke-dasharray="0.01 2"/>
<path d="M1310.58 38.3091V627.656" stroke="white" stroke-miterlimit="10" stroke-linecap="round" stroke-dasharray="0.01 2"/>
<path d="M1000.14 38.3091V627.656" stroke="white" stroke-miterlimit="10" stroke-linecap="round" stroke-dasharray="0.01 2"/>
<path d="M689.089 38.3091V627.656" stroke="white" stroke-miterlimit="10" stroke-linecap="round" stroke-dasharray="0.01 2"/>
<path d="M378.042 38.3091V627.656" stroke="white" stroke-miterlimit="10" stroke-linecap="round" stroke-dasharray="0.01 2"/>
<path d="M2170.21 608.22C1907.16 608.22 1907.16 57.1177 1644.71 57.1177C1381.66 57.1177 1381.66 608.22 1119.21 608.22C856.156 608.22 856.156 57.1177 593.71 57.1177C331.263 57.1177 330.048 608.22 66.9941 608.22" stroke="white" stroke-miterlimit="10"/>
<path d="M2554.77 608.22C2291.71 608.22 2291.71 57.1177 2029.27 57.1177C1766.21 57.1177 1766.21 608.22 1503.77 608.22C1240.11 608.22 1240.11 57.7446 977.051 57.7446C713.997 57.7446 713.997 608.847 451.551 608.847" stroke="white" stroke-miterlimit="10"/>
<path d="M2362.19 608.22C2099.13 608.22 2099.13 57.1177 1836.69 57.1177C1573.63 57.1177 1573.63 608.22 1311.18 608.22C1048.13 608.22 1048.13 57.1177 785.684 57.1177C523.238 57.1177 522.023 608.22 258.969 608.22" stroke="white" stroke-miterlimit="10"/>
</g>
<path d="M31.1504 332.983H2554.77" stroke="white" stroke-miterlimit="10" stroke-linecap="round" stroke-dasharray="0.01 2"/>
<path d="M31.1504 176.241H2554.77" stroke="white" stroke-miterlimit="10" stroke-linecap="round" stroke-dasharray="0.01 2"/>
<path d="M31.1504 490.35H2554.77" stroke="white" stroke-miterlimit="10" stroke-linecap="round" stroke-dasharray="0.01 2"/>
<path d="M30.543 647.092H2554.16" stroke="white" stroke-width="0.75" stroke-miterlimit="10" stroke-linecap="round" stroke-dasharray="0.5 0.5"/>
<path d="M31.1504 19.5H2554.77" stroke="white" stroke-miterlimit="10" stroke-linecap="round" stroke-dasharray="0.01 2"/>
<path d="M19 646.464H66.9937" stroke="white" stroke-miterlimit="10"/>
<path d="M19 332.982H66.9937" stroke="white" stroke-miterlimit="10"/>
<path d="M19 19.5H66.9937" stroke="white" stroke-miterlimit="10"/>
<path d="M19 42.0708H48.7682" stroke="white" stroke-miterlimit="10"/>
<path d="M19 64.0146H48.7682" stroke="white" stroke-miterlimit="10"/>
<path d="M19 86.5854H48.7682" stroke="white" stroke-miterlimit="10"/>
<path d="M19 109.156H48.7682" stroke="white" stroke-miterlimit="10"/>
<path d="M19 131.727H48.7682" stroke="white" stroke-miterlimit="10"/>
<path d="M19 153.67H48.7682" stroke="white" stroke-miterlimit="10"/>
<path d="M19 176.241H48.7682" stroke="white" stroke-miterlimit="10"/>
<path d="M19 198.812H48.7682" stroke="white" stroke-miterlimit="10"/>
<path d="M19 220.755H48.7682" stroke="white" stroke-miterlimit="10"/>
<path d="M19 243.327H48.7682" stroke="white" stroke-miterlimit="10"/>
<path d="M19 265.897H48.7682" stroke="white" stroke-miterlimit="10"/>
<path d="M19 288.468H48.7682" stroke="white" stroke-miterlimit="10"/>
<path d="M19 310.412H48.7682" stroke="white" stroke-miterlimit="10"/>
<path d="M19 355.553H48.7682" stroke="white" stroke-miterlimit="10"/>
<path d="M19 377.497H48.7682" stroke="white" stroke-miterlimit="10"/>
<path d="M19 400.068H48.7682" stroke="white" stroke-miterlimit="10"/>
<path d="M19 422.638H48.7682" stroke="white" stroke-miterlimit="10"/>
<path d="M19 445.209H48.7682" stroke="white" stroke-miterlimit="10"/>
<path d="M19 467.153H48.7682" stroke="white" stroke-miterlimit="10"/>
<path d="M19 489.723H48.7682" stroke="white" stroke-miterlimit="10"/>
<path d="M19 512.294H48.7682" stroke="white" stroke-miterlimit="10"/>
<path d="M19 534.238H48.7682" stroke="white" stroke-miterlimit="10"/>
<path d="M19 556.809H48.7682" stroke="white" stroke-miterlimit="10"/>
<path d="M19 579.379H48.7682" stroke="white" stroke-miterlimit="10"/>
<path d="M19 601.951H48.7682" stroke="white" stroke-miterlimit="10"/>
<path d="M19 623.894H48.7682" stroke="white" stroke-miterlimit="10"/>
<path d="M689.09 695.995V646.464" stroke="white" stroke-miterlimit="10"/>
<path d="M378.042 695.995V646.464" stroke="white" stroke-miterlimit="10"/>
<path d="M66.9941 695.995V646.464" stroke="white" stroke-miterlimit="10"/>
<path d="M89.4727 695.994V665.273" stroke="white" stroke-miterlimit="10"/>
<path d="M111.343 695.994V665.273" stroke="white" stroke-miterlimit="10"/>
<path d="M133.82 695.994V665.273" stroke="white" stroke-miterlimit="10"/>
<path d="M155.691 695.994V665.273" stroke="white" stroke-miterlimit="10"/>
<path d="M178.17 695.994V665.273" stroke="white" stroke-miterlimit="10"/>
<path d="M200.04 695.994V665.273" stroke="white" stroke-miterlimit="10"/>
<path d="M222.519 695.994V665.273" stroke="white" stroke-miterlimit="10"/>
<path d="M244.389 695.994V665.273" stroke="white" stroke-miterlimit="10"/>
<path d="M266.866 695.994V665.273" stroke="white" stroke-miterlimit="10"/>
<path d="M289.345 695.994V665.273" stroke="white" stroke-miterlimit="10"/>
<path d="M311.215 695.994V665.273" stroke="white" stroke-miterlimit="10"/>
<path d="M333.693 695.994V665.273" stroke="white" stroke-miterlimit="10"/>
<path d="M355.563 695.994V665.273" stroke="white" stroke-miterlimit="10"/>
<path d="M399.912 695.994V665.273" stroke="white" stroke-miterlimit="10"/>
<path d="M422.391 695.994V665.273" stroke="white" stroke-miterlimit="10"/>
<path d="M444.868 695.994V665.273" stroke="white" stroke-miterlimit="10"/>
<path d="M466.739 695.994V665.273" stroke="white" stroke-miterlimit="10"/>
<path d="M489.217 695.994V665.273" stroke="white" stroke-miterlimit="10"/>
<path d="M511.088 695.994V665.273" stroke="white" stroke-miterlimit="10"/>
<path d="M533.565 695.994V665.273" stroke="white" stroke-miterlimit="10"/>
<path d="M555.437 695.994V665.273" stroke="white" stroke-miterlimit="10"/>
<path d="M577.914 695.994V665.273" stroke="white" stroke-miterlimit="10"/>
<path d="M599.785 695.994V665.273" stroke="white" stroke-miterlimit="10"/>
<path d="M622.263 695.994V665.273" stroke="white" stroke-miterlimit="10"/>
<path d="M644.741 695.994V665.273" stroke="white" stroke-miterlimit="10"/>
<path d="M666.611 695.994V665.273" stroke="white" stroke-miterlimit="10"/>
<path d="M1310.58 695.995V646.464" stroke="white" stroke-miterlimit="10"/>
<path d="M1000.14 695.995V646.464" stroke="white" stroke-miterlimit="10"/>
<path d="M710.96 695.994V665.273" stroke="white" stroke-miterlimit="10"/>
<path d="M733.438 695.994V665.273" stroke="white" stroke-miterlimit="10"/>
<path d="M755.309 695.994V665.273" stroke="white" stroke-miterlimit="10"/>
<path d="M777.786 695.994V665.273" stroke="white" stroke-miterlimit="10"/>
<path d="M799.657 695.994V665.273" stroke="white" stroke-miterlimit="10"/>
<path d="M822.135 695.994V665.273" stroke="white" stroke-miterlimit="10"/>
<path d="M844.613 695.994V665.273" stroke="white" stroke-miterlimit="10"/>
<path d="M866.483 695.994V665.273" stroke="white" stroke-miterlimit="10"/>
<path d="M888.962 695.994V665.273" stroke="white" stroke-miterlimit="10"/>
<path d="M910.833 695.994V665.273" stroke="white" stroke-miterlimit="10"/>
<path d="M933.311 695.994V665.273" stroke="white" stroke-miterlimit="10"/>
<path d="M955.181 695.994V665.273" stroke="white" stroke-miterlimit="10"/>
<path d="M977.659 695.994V665.273" stroke="white" stroke-miterlimit="10"/>
<path d="M1022.01 695.994V665.273" stroke="white" stroke-miterlimit="10"/>
<path d="M1044.49 695.994V665.273" stroke="white" stroke-miterlimit="10"/>
<path d="M1066.36 695.994V665.273" stroke="white" stroke-miterlimit="10"/>
<path d="M1088.83 695.994V665.273" stroke="white" stroke-miterlimit="10"/>
<path d="M1110.71 695.994V665.273" stroke="white" stroke-miterlimit="10"/>
<path d="M1133.18 695.994V665.273" stroke="white" stroke-miterlimit="10"/>
<path d="M1155.05 695.994V665.273" stroke="white" stroke-miterlimit="10"/>
<path d="M1177.53 695.994V665.273" stroke="white" stroke-miterlimit="10"/>
<path d="M1200.01 695.994V665.273" stroke="white" stroke-miterlimit="10"/>
<path d="M1221.88 695.994V665.273" stroke="white" stroke-miterlimit="10"/>
<path d="M1244.36 695.994V665.273" stroke="white" stroke-miterlimit="10"/>
<path d="M1266.23 695.994V665.273" stroke="white" stroke-miterlimit="10"/>
<path d="M1288.71 695.994V665.273" stroke="white" stroke-miterlimit="10"/>
<path d="M1932.67 695.995V646.464" stroke="white" stroke-miterlimit="10"/>
<path d="M1621.62 695.995V646.464" stroke="white" stroke-miterlimit="10"/>
<path d="M1333.06 695.994V665.273" stroke="white" stroke-miterlimit="10"/>
<path d="M1354.93 695.994V665.273" stroke="white" stroke-miterlimit="10"/>
<path d="M1377.4 695.994V665.273" stroke="white" stroke-miterlimit="10"/>
<path d="M1399.88 695.994V665.273" stroke="white" stroke-miterlimit="10"/>
<path d="M1421.75 695.994V665.273" stroke="white" stroke-miterlimit="10"/>
<path d="M1444.23 695.994V665.273" stroke="white" stroke-miterlimit="10"/>
<path d="M1466.1 695.994V665.273" stroke="white" stroke-miterlimit="10"/>
<path d="M1488.58 695.994V665.273" stroke="white" stroke-miterlimit="10"/>
<path d="M1510.45 695.994V665.273" stroke="white" stroke-miterlimit="10"/>
<path d="M1532.93 695.994V665.273" stroke="white" stroke-miterlimit="10"/>
<path d="M1554.8 695.994V665.273" stroke="white" stroke-miterlimit="10"/>
<path d="M1577.28 695.994V665.273" stroke="white" stroke-miterlimit="10"/>
<path d="M1599.75 695.994V665.273" stroke="white" stroke-miterlimit="10"/>
<path d="M1644.1 695.994V665.273" stroke="white" stroke-miterlimit="10"/>
<path d="M1665.97 695.994V665.273" stroke="white" stroke-miterlimit="10"/>
<path d="M1688.45 695.994V665.273" stroke="white" stroke-miterlimit="10"/>
<path d="M1710.32 695.994V665.273" stroke="white" stroke-miterlimit="10"/>
<path d="M1732.8 695.994V665.273" stroke="white" stroke-miterlimit="10"/>
<path d="M1755.28 695.994V665.273" stroke="white" stroke-miterlimit="10"/>
<path d="M1777.15 695.994V665.273" stroke="white" stroke-miterlimit="10"/>
<path d="M1799.63 695.994V665.273" stroke="white" stroke-miterlimit="10"/>
<path d="M1821.5 695.994V665.273" stroke="white" stroke-miterlimit="10"/>
<path d="M1843.98 695.994V665.273" stroke="white" stroke-miterlimit="10"/>
<path d="M1865.85 695.994V665.273" stroke="white" stroke-miterlimit="10"/>
<path d="M1888.32 695.994V665.273" stroke="white" stroke-miterlimit="10"/>
<path d="M1910.19 695.994V665.273" stroke="white" stroke-miterlimit="10"/>
<path d="M2554.77 695.995V646.464" stroke="white" stroke-miterlimit="10"/>
<path d="M2243.72 695.995V646.464" stroke="white" stroke-miterlimit="10"/>
<path d="M1955.15 695.994V665.273" stroke="white" stroke-miterlimit="10"/>
<path d="M1977.02 695.994V665.273" stroke="white" stroke-miterlimit="10"/>
<path d="M1999.5 695.994V665.273" stroke="white" stroke-miterlimit="10"/>
<path d="M2021.37 695.994V665.273" stroke="white" stroke-miterlimit="10"/>
<path d="M2043.85 695.994V665.273" stroke="white" stroke-miterlimit="10"/>
<path d="M2065.72 695.994V665.273" stroke="white" stroke-miterlimit="10"/>
<path d="M2088.2 695.994V665.273" stroke="white" stroke-miterlimit="10"/>
<path d="M2110.07 695.994V665.273" stroke="white" stroke-miterlimit="10"/>
<path d="M2132.54 695.994V665.273" stroke="white" stroke-miterlimit="10"/>
<path d="M2155.02 695.994V665.273" stroke="white" stroke-miterlimit="10"/>
<path d="M2176.89 695.994V665.273" stroke="white" stroke-miterlimit="10"/>
<path d="M2199.37 695.994V665.273" stroke="white" stroke-miterlimit="10"/>
<path d="M2221.24 695.994V665.273" stroke="white" stroke-miterlimit="10"/>
<path d="M2265.59 695.994V665.273" stroke="white" stroke-miterlimit="10"/>
<path d="M2288.07 695.994V665.273" stroke="white" stroke-miterlimit="10"/>
<path d="M2309.94 695.994V665.273" stroke="white" stroke-miterlimit="10"/>
<path d="M2332.42 695.994V665.273" stroke="white" stroke-miterlimit="10"/>
<path d="M2354.9 695.994V665.273" stroke="white" stroke-miterlimit="10"/>
<path d="M2376.77 695.994V665.273" stroke="white" stroke-miterlimit="10"/>
<path d="M2399.24 695.994V665.273" stroke="white" stroke-miterlimit="10"/>
<path d="M2421.11 695.994V665.273" stroke="white" stroke-miterlimit="10"/>
<path d="M2443.59 695.994V665.273" stroke="white" stroke-miterlimit="10"/>
<path d="M2465.46 695.994V665.273" stroke="white" stroke-miterlimit="10"/>
<path d="M2487.94 695.994V665.273" stroke="white" stroke-miterlimit="10"/>
<path d="M2510.42 695.994V665.273" stroke="white" stroke-miterlimit="10"/>
<path d="M2532.29 695.994V665.273" stroke="white" stroke-miterlimit="10"/>
<path d="M66.9941 38.3091V627.656" stroke="white" stroke-miterlimit="10" stroke-linecap="round" stroke-dasharray="0.01 2"/>
<path d="M2554.77 38.3091V627.656" stroke="white" stroke-miterlimit="10" stroke-linecap="round" stroke-dasharray="0.01 2"/>
<path d="M2243.72 38.3091V627.656" stroke="white" stroke-miterlimit="10" stroke-linecap="round" stroke-dasharray="0.01 2"/>
<path d="M1932.67 38.3091V627.656" stroke="white" stroke-miterlimit="10" stroke-linecap="round" stroke-dasharray="0.01 2"/>
<path d="M1621.62 38.3091V627.656" stroke="white" stroke-miterlimit="10" stroke-linecap="round" stroke-dasharray="0.01 2"/>
<path d="M1310.58 38.3091V627.656" stroke="white" stroke-miterlimit="10" stroke-linecap="round" stroke-dasharray="0.01 2"/>
<path d="M1000.14 38.3091V627.656" stroke="white" stroke-miterlimit="10" stroke-linecap="round" stroke-dasharray="0.01 2"/>
<path d="M689.089 38.3091V627.656" stroke="white" stroke-miterlimit="10" stroke-linecap="round" stroke-dasharray="0.01 2"/>
<path d="M378.042 38.3091V627.656" stroke="white" stroke-miterlimit="10" stroke-linecap="round" stroke-dasharray="0.01 2"/>
<path d="M2170.21 608.22C1907.16 608.22 1907.16 57.1177 1644.71 57.1177C1381.66 57.1177 1381.66 608.22 1119.21 608.22C856.156 608.22 856.156 57.1177 593.71 57.1177C331.263 57.1177 330.048 608.22 66.9941 608.22" stroke="white" stroke-width="2" stroke-miterlimit="10"/>
<path d="M2554.77 608.22C2291.71 608.22 2291.71 57.1177 2029.27 57.1177C1766.21 57.1177 1766.21 608.22 1503.77 608.22C1240.11 608.22 1240.11 57.7446 977.051 57.7446C713.997 57.7446 713.997 608.847 451.551 608.847" stroke="white" stroke-width="2" stroke-miterlimit="10"/>
<path d="M2362.19 608.22C2099.13 608.22 2099.13 57.1177 1836.69 57.1177C1573.63 57.1177 1573.63 608.22 1311.18 608.22C1048.13 608.22 1048.13 57.1177 785.684 57.1177C523.238 57.1177 522.023 608.22 258.969 608.22" stroke="white" stroke-width="2" stroke-miterlimit="10"/>
</g>
<defs>
<filter id="filter0_df_32_174" x="0" y="0" width="2574.27" height="714.995" filterUnits="userSpaceOnUse" color-interpolation-filters="sRGB">
<feFlood flood-opacity="0" result="BackgroundImageFix"/>
<feColorMatrix in="SourceAlpha" type="matrix" values="0 0 0 0 0 0 0 0 0 0 0 0 0 0 0 0 0 0 127 0" result="hardAlpha"/>
<feOffset dy="4"/>
<feGaussianBlur stdDeviation="2"/>
<feComposite in2="hardAlpha" operator="out"/>
<feColorMatrix type="matrix" values="0 0 0 0 0 0 0 0 0 0 0 0 0 0 0 0 0 0 0.25 0"/>
<feBlend mode="normal" in2="BackgroundImageFix" result="effect1_dropShadow_32_174"/>
<feBlend mode="normal" in="SourceGraphic" in2="effect1_dropShadow_32_174" result="shape"/>
<feGaussianBlur stdDeviation="9.5" result="effect2_foregroundBlur_32_174"/>
</filter>
</defs>
</svg>
