<svg width="1693" height="723" viewBox="0 0 1693 723" fill="none" xmlns="http://www.w3.org/2000/svg">
<g style="mix-blend-mode:plus-lighter" opacity="0.1">
<path d="M118.85 0V214.519" stroke="white" stroke-width="2.91235" stroke-miterlimit="10"/>
<path d="M0 107.442H237.295" stroke="white" stroke-width="2.91235" stroke-miterlimit="10"/>
<path d="M437.399 0V99.7678" stroke="white" stroke-width="2.91235" stroke-miterlimit="10"/>
<path d="M437.399 114.751V214.519" stroke="white" stroke-width="2.91235" stroke-miterlimit="10"/>
<path d="M318.953 107.442H428.909" stroke="white" stroke-width="2.91235" stroke-miterlimit="10"/>
<path d="M445.889 107.442H556.249" stroke="white" stroke-width="2.91235" stroke-miterlimit="10"/>
<path d="M724.417 0V92.0933" stroke="white" stroke-width="2.91235" stroke-miterlimit="10"/>
<path d="M724.417 122.426V214.519" stroke="white" stroke-width="2.91235" stroke-miterlimit="10"/>
<path d="M605.568 107.442H707.439" stroke="white" stroke-width="2.91235" stroke-miterlimit="10"/>
<path d="M740.992 107.442H842.863" stroke="white" stroke-width="2.91235" stroke-miterlimit="10"/>
<path d="M1009.01 0V84.4189" stroke="white" stroke-width="2.91235" stroke-miterlimit="10"/>
<path d="M1009.01 130.101V214.519" stroke="white" stroke-width="2.91235" stroke-miterlimit="10"/>
<path d="M890.565 107.442H983.947" stroke="white" stroke-width="2.91235" stroke-miterlimit="10"/>
<path d="M1034.48 107.442H1127.86" stroke="white" stroke-width="2.91235" stroke-miterlimit="10"/>
<path d="M1306.13 0V77.1099" stroke="white" stroke-width="2.91235" stroke-miterlimit="10"/>
<path d="M1306.13 137.409V214.519" stroke="white" stroke-width="2.91235" stroke-miterlimit="10"/>
<path d="M1187.28 107.442H1272.58" stroke="white" stroke-width="2.91235" stroke-miterlimit="10"/>
<path d="M1339.69 107.442H1424.58" stroke="white" stroke-width="2.91235" stroke-miterlimit="10"/>
<path d="M1573.34 0V69.4354" stroke="white" stroke-width="2.91235" stroke-miterlimit="10"/>
<path d="M1573.34 145.084V214.519" stroke="white" stroke-width="2.91235" stroke-miterlimit="10"/>
<path d="M1454.9 107.442H1531.7" stroke="white" stroke-width="2.91235" stroke-miterlimit="10"/>
<path d="M1615.39 107.442H1692.19" stroke="white" stroke-width="2.91235" stroke-miterlimit="10"/>
<path d="M118.85 247.775V309.536" stroke="white" stroke-width="2.91235" stroke-miterlimit="10"/>
<path d="M118.85 400.533V462.294" stroke="white" stroke-width="2.91235" stroke-miterlimit="10"/>
<path d="M0 354.853H68.3184" stroke="white" stroke-width="2.91235" stroke-miterlimit="10"/>
<path d="M168.977 354.853H237.295" stroke="white" stroke-width="2.91235" stroke-miterlimit="10"/>
<path d="M437.399 247.775V301.862" stroke="white" stroke-width="2.91235" stroke-miterlimit="10"/>
<path d="M437.399 407.843V462.295" stroke="white" stroke-width="2.91235" stroke-miterlimit="10"/>
<path d="M318.954 354.853H378.783" stroke="white" stroke-width="2.91235" stroke-miterlimit="10"/>
<path d="M496.015 354.853H556.249" stroke="white" stroke-width="2.91235" stroke-miterlimit="10"/>
<path d="M724.417 247.775V294.553" stroke="white" stroke-width="2.91235" stroke-miterlimit="10"/>
<path d="M724.417 415.516V462.293" stroke="white" stroke-width="2.91235" stroke-miterlimit="10"/>
<path d="M605.568 354.853H657.312" stroke="white" stroke-width="2.91235" stroke-miterlimit="10"/>
<path d="M791.118 354.853H842.862" stroke="white" stroke-width="2.91235" stroke-miterlimit="10"/>
<path d="M1009.01 247.775V286.879" stroke="white" stroke-width="2.91235" stroke-miterlimit="10"/>
<path d="M1009.01 423.19V462.294" stroke="white" stroke-width="2.91235" stroke-miterlimit="10"/>
<path d="M890.565 354.853H933.82" stroke="white" stroke-width="2.91235" stroke-miterlimit="10"/>
<path d="M1084.6 354.853H1127.86" stroke="white" stroke-width="2.91235" stroke-miterlimit="10"/>
<path d="M1306.13 247.775V279.204" stroke="white" stroke-width="2.91235" stroke-miterlimit="10"/>
<path d="M1306.13 430.865V462.294" stroke="white" stroke-width="2.91235" stroke-miterlimit="10"/>
<path d="M1187.28 354.853H1222.45" stroke="white" stroke-width="2.91235" stroke-miterlimit="10"/>
<path d="M1389.81 354.853H1424.58" stroke="white" stroke-width="2.91235" stroke-miterlimit="10"/>
<path d="M1573.34 247.775V271.53" stroke="white" stroke-width="2.91235" stroke-miterlimit="10"/>
<path d="M1573.34 438.174V462.294" stroke="white" stroke-width="2.91235" stroke-miterlimit="10"/>
<path d="M1454.9 354.853H1481.17" stroke="white" stroke-width="2.91235" stroke-miterlimit="10"/>
<path d="M1665.51 354.853H1692.19" stroke="white" stroke-width="2.91235" stroke-miterlimit="10"/>
<path d="M118.85 507.61V569.371" stroke="white" stroke-width="2.91235" stroke-miterlimit="10"/>
<path d="M118.85 660.368V722.129" stroke="white" stroke-width="2.91235" stroke-miterlimit="10"/>
<path d="M0 614.688H68.3184" stroke="white" stroke-width="2.91235" stroke-miterlimit="10"/>
<path d="M168.977 614.688H237.295" stroke="white" stroke-width="2.91235" stroke-miterlimit="10"/>
<path d="M437.399 507.61V561.697" stroke="white" stroke-width="2.91235" stroke-miterlimit="10"/>
<path d="M437.399 667.678V722.13" stroke="white" stroke-width="2.91235" stroke-miterlimit="10"/>
<path d="M318.954 614.688H378.783" stroke="white" stroke-width="2.91235" stroke-miterlimit="10"/>
<path d="M496.015 614.688H556.249" stroke="white" stroke-width="2.91235" stroke-miterlimit="10"/>
<path d="M724.417 507.61V554.388" stroke="white" stroke-width="2.91235" stroke-miterlimit="10"/>
<path d="M724.417 675.352V722.129" stroke="white" stroke-width="2.91235" stroke-miterlimit="10"/>
<path d="M605.568 614.688H657.312" stroke="white" stroke-width="2.91235" stroke-miterlimit="10"/>
<path d="M791.118 614.688H842.862" stroke="white" stroke-width="2.91235" stroke-miterlimit="10"/>
<path d="M1009.01 507.61V546.713" stroke="white" stroke-width="2.91235" stroke-miterlimit="10"/>
<path d="M1009.01 683.025V722.129" stroke="white" stroke-width="2.91235" stroke-miterlimit="10"/>
<path d="M890.565 614.688H933.82" stroke="white" stroke-width="2.91235" stroke-miterlimit="10"/>
<path d="M1084.6 614.688H1127.86" stroke="white" stroke-width="2.91235" stroke-miterlimit="10"/>
<path d="M1306.13 507.61V539.039" stroke="white" stroke-width="2.91235" stroke-miterlimit="10"/>
<path d="M1306.13 690.7V722.129" stroke="white" stroke-width="2.91235" stroke-miterlimit="10"/>
<path d="M1187.28 614.688H1222.45" stroke="white" stroke-width="2.91235" stroke-miterlimit="10"/>
<path d="M1389.81 614.688H1424.58" stroke="white" stroke-width="2.91235" stroke-miterlimit="10"/>
<path d="M1573.34 507.61V531.365" stroke="white" stroke-width="2.91235" stroke-miterlimit="10"/>
<path d="M1573.34 698.01V722.129" stroke="white" stroke-width="2.91235" stroke-miterlimit="10"/>
<path d="M1454.9 614.688H1481.17" stroke="white" stroke-width="2.91235" stroke-miterlimit="10"/>
<path d="M1665.51 614.688H1692.19" stroke="white" stroke-width="2.91235" stroke-miterlimit="10"/>
</g>
</svg>
