<svg width="1923" height="1761" viewBox="0 0 1923 1761" fill="none" xmlns="http://www.w3.org/2000/svg">
<g style="mix-blend-mode:plus-lighter" opacity="0.1">
<g filter="url(#filter0_df_32_120)">
<path d="M903.936 20.0039C955.14 20.0039 1004 43.948 1048.53 87.4141C1093.07 130.885 1133.22 193.836 1166.97 271.704C1234.45 427.437 1276.21 642.649 1276.21 880.418C1276.21 1118.19 1234.45 1333.4 1166.97 1489.13C1133.22 1567 1093.07 1629.95 1048.53 1673.42C1004 1716.89 955.14 1740.83 903.936 1740.83C852.731 1740.83 803.869 1716.89 759.337 1673.42C714.801 1629.95 674.648 1567 640.905 1489.13C573.421 1333.4 531.656 1118.19 531.656 880.418C531.656 642.649 573.421 427.437 640.905 271.704C674.648 193.836 714.801 130.885 759.337 87.4141C803.869 43.948 852.731 20.004 903.936 20.0039Z" stroke="white" stroke-width="2"/>
<path d="M961.361 20C1012.57 20 1061.43 43.9441 1105.96 87.4102C1150.5 130.881 1190.65 193.832 1224.39 271.7C1291.88 427.433 1333.64 642.645 1333.64 880.414C1333.64 1118.18 1291.88 1333.4 1224.39 1489.13C1190.65 1567 1150.5 1629.95 1105.96 1673.42C1061.43 1716.88 1012.57 1740.83 961.361 1740.83C910.156 1740.83 861.294 1716.88 816.763 1673.42C772.227 1629.95 732.074 1567 698.331 1489.13C630.847 1333.4 589.082 1118.18 589.082 880.414C589.082 642.645 630.847 427.433 698.331 271.7C732.074 193.832 772.227 130.881 816.763 87.4102C861.294 43.9441 910.156 20 961.361 20Z" stroke="white" stroke-width="2"/>
<path d="M1018.79 20C1070 20 1118.86 43.9441 1163.39 87.4102C1207.93 130.881 1248.08 193.832 1281.82 271.7C1349.31 427.433 1391.07 642.645 1391.07 880.414C1391.07 1118.18 1349.31 1333.4 1281.82 1489.13C1248.08 1567 1207.93 1629.95 1163.39 1673.42C1118.86 1716.88 1070 1740.83 1018.79 1740.83C967.587 1740.83 918.725 1716.88 874.193 1673.42C829.657 1629.95 789.504 1567 755.762 1489.13C688.278 1333.4 646.513 1118.18 646.513 880.414C646.513 642.645 688.278 427.433 755.762 271.7C789.504 193.832 829.657 130.881 874.193 87.4102C918.725 43.9441 967.587 20 1018.79 20Z" stroke="white" stroke-width="2"/>
<path d="M187.509 499.95C213.111 455.606 258.278 425.262 318.187 408.429C378.102 391.595 452.696 388.297 537.003 398.009C705.613 417.432 912.874 488.869 1118.79 607.754C1324.7 726.639 1490.2 870.414 1591.33 1006.72C1641.89 1074.88 1676.33 1141.13 1691.71 1201.43C1707.09 1261.73 1703.39 1316.02 1677.79 1360.36C1652.19 1404.71 1607.02 1435.05 1547.11 1451.89C1487.2 1468.72 1412.6 1472.02 1328.3 1462.31C1159.69 1442.88 952.424 1371.45 746.509 1252.56C540.595 1133.68 375.098 989.9 273.972 853.591C223.408 785.435 188.967 719.186 173.588 658.882C158.211 598.583 161.906 544.295 187.509 499.95Z" stroke="white" stroke-width="2"/>
<path d="M216.221 450.218C241.823 405.873 286.99 375.529 346.899 358.697C406.813 341.863 481.408 338.564 565.715 348.276C734.325 367.7 941.586 439.137 1147.5 558.022C1353.42 676.906 1518.91 820.682 1620.04 956.991C1670.6 1025.15 1705.04 1091.4 1720.42 1151.7C1735.8 1212 1732.1 1266.29 1706.5 1310.63C1680.9 1354.98 1635.73 1385.32 1575.82 1402.15C1515.91 1418.99 1441.32 1422.29 1357.01 1412.57C1188.4 1393.15 981.136 1321.71 775.221 1202.83C569.307 1083.94 403.81 940.168 302.684 803.859C252.12 735.703 217.679 669.454 202.3 609.149C186.923 548.851 190.618 494.563 216.221 450.218Z" stroke="white" stroke-width="2"/>
<path d="M244.934 400.479C270.537 356.134 315.704 325.79 375.613 308.958C435.527 292.123 510.122 288.825 594.429 298.537C763.039 317.96 970.3 389.398 1176.21 508.282C1382.13 627.167 1547.63 770.942 1648.75 907.251C1699.32 975.407 1733.76 1041.66 1749.14 1101.96C1764.51 1162.26 1760.82 1216.55 1735.22 1260.89C1709.61 1305.24 1664.45 1335.58 1604.54 1352.41C1544.62 1369.25 1470.03 1372.55 1385.72 1362.83C1217.11 1343.41 1009.85 1271.97 803.935 1153.09C598.021 1034.2 432.524 890.429 331.398 754.12C280.834 685.964 246.393 619.715 231.014 559.41C215.637 499.111 219.332 444.823 244.934 400.479Z" stroke="white" stroke-width="2"/>
<path d="M1735.22 499.948C1709.61 455.604 1664.45 425.26 1604.54 408.427C1544.62 391.593 1470.03 388.295 1385.72 398.007C1217.11 417.43 1009.85 488.867 803.937 607.752C598.022 726.637 432.525 870.412 331.398 1006.72C280.834 1074.88 246.393 1141.13 231.015 1201.43C215.638 1261.73 219.333 1316.02 244.935 1360.36C270.538 1404.71 315.705 1435.05 375.614 1451.88C435.528 1468.72 510.122 1472.02 594.429 1462.3C763.04 1442.88 970.302 1371.44 1176.22 1252.56C1382.13 1133.67 1547.63 989.899 1648.75 853.589C1699.32 785.434 1733.76 719.184 1749.14 658.88C1764.51 598.581 1760.82 544.293 1735.22 499.948Z" stroke="white" stroke-width="2"/>
<path d="M1706.51 450.216C1680.9 405.871 1635.74 375.527 1575.83 358.695C1515.91 341.861 1441.32 338.562 1357.01 348.274C1188.4 367.698 981.139 439.135 775.225 558.02C569.311 676.904 403.813 820.68 302.687 956.989C252.122 1025.14 217.681 1091.39 202.303 1151.7C186.926 1212 190.621 1266.29 216.223 1310.63C241.826 1354.98 286.993 1385.32 346.902 1402.15C406.816 1418.99 481.411 1422.28 565.717 1412.57C734.328 1393.15 941.59 1321.71 1147.5 1202.83C1353.42 1083.94 1518.92 940.166 1620.04 803.857C1670.61 735.701 1705.05 669.452 1720.43 609.147C1735.8 548.849 1732.11 494.561 1706.51 450.216Z" stroke="white" stroke-width="2"/>
<path d="M1677.79 400.478C1652.19 356.133 1607.02 325.789 1547.11 308.957C1487.2 292.122 1412.6 288.824 1328.3 298.536C1159.69 317.959 952.424 389.397 746.51 508.281C540.596 627.166 375.098 770.941 273.972 907.25C223.408 975.406 188.967 1041.66 173.588 1101.96C158.211 1162.26 161.906 1216.55 187.509 1260.89C213.111 1305.24 258.278 1335.58 318.187 1352.41C378.101 1369.25 452.696 1372.54 537.002 1362.83C705.613 1343.41 912.875 1271.97 1118.79 1153.09C1324.7 1034.2 1490.2 890.428 1591.33 754.119C1641.89 685.963 1676.33 619.714 1691.71 559.409C1707.09 499.11 1703.39 444.822 1677.79 400.478Z" stroke="white" stroke-width="2"/>
</g>
<path d="M903.936 20.0039C955.14 20.0039 1004 43.948 1048.53 87.4141C1093.07 130.885 1133.22 193.836 1166.97 271.704C1234.45 427.437 1276.21 642.649 1276.21 880.418C1276.21 1118.19 1234.45 1333.4 1166.97 1489.13C1133.22 1567 1093.07 1629.95 1048.53 1673.42C1004 1716.89 955.14 1740.83 903.936 1740.83C852.731 1740.83 803.869 1716.89 759.337 1673.42C714.801 1629.95 674.648 1567 640.905 1489.13C573.421 1333.4 531.656 1118.19 531.656 880.418C531.656 642.649 573.421 427.437 640.905 271.704C674.648 193.836 714.801 130.885 759.337 87.4141C803.869 43.948 852.731 20.004 903.936 20.0039Z" stroke="white" stroke-width="2"/>
<path d="M961.361 20C1012.57 20 1061.43 43.9441 1105.96 87.4102C1150.5 130.881 1190.65 193.832 1224.39 271.7C1291.88 427.433 1333.64 642.645 1333.64 880.414C1333.64 1118.18 1291.88 1333.4 1224.39 1489.13C1190.65 1567 1150.5 1629.95 1105.96 1673.42C1061.43 1716.88 1012.57 1740.83 961.361 1740.83C910.156 1740.83 861.294 1716.88 816.763 1673.42C772.227 1629.95 732.074 1567 698.331 1489.13C630.847 1333.4 589.082 1118.18 589.082 880.414C589.082 642.645 630.847 427.433 698.331 271.7C732.074 193.832 772.227 130.881 816.763 87.4102C861.294 43.9441 910.156 20 961.361 20Z" stroke="white" stroke-width="2"/>
<path d="M1018.79 20C1070 20 1118.86 43.9441 1163.39 87.4102C1207.93 130.881 1248.08 193.832 1281.82 271.7C1349.31 427.433 1391.07 642.645 1391.07 880.414C1391.07 1118.18 1349.31 1333.4 1281.82 1489.13C1248.08 1567 1207.93 1629.95 1163.39 1673.42C1118.86 1716.88 1070 1740.83 1018.79 1740.83C967.587 1740.83 918.725 1716.88 874.193 1673.42C829.657 1629.95 789.504 1567 755.762 1489.13C688.278 1333.4 646.513 1118.18 646.513 880.414C646.513 642.645 688.278 427.433 755.762 271.7C789.504 193.832 829.657 130.881 874.193 87.4102C918.725 43.9441 967.587 20 1018.79 20Z" stroke="white" stroke-width="2"/>
<path d="M187.509 499.95C213.111 455.606 258.278 425.262 318.187 408.429C378.102 391.595 452.696 388.297 537.003 398.009C705.613 417.432 912.874 488.869 1118.79 607.754C1324.7 726.639 1490.2 870.414 1591.33 1006.72C1641.89 1074.88 1676.33 1141.13 1691.71 1201.43C1707.09 1261.73 1703.39 1316.02 1677.79 1360.36C1652.19 1404.71 1607.02 1435.05 1547.11 1451.89C1487.2 1468.72 1412.6 1472.02 1328.3 1462.31C1159.69 1442.88 952.424 1371.45 746.509 1252.56C540.595 1133.68 375.098 989.9 273.972 853.591C223.408 785.435 188.967 719.186 173.588 658.882C158.211 598.583 161.906 544.295 187.509 499.95Z" stroke="white" stroke-width="2"/>
<path d="M216.221 450.218C241.823 405.873 286.99 375.529 346.899 358.697C406.813 341.863 481.408 338.564 565.715 348.276C734.325 367.7 941.586 439.137 1147.5 558.022C1353.42 676.906 1518.91 820.682 1620.04 956.991C1670.6 1025.15 1705.04 1091.4 1720.42 1151.7C1735.8 1212 1732.1 1266.29 1706.5 1310.63C1680.9 1354.98 1635.73 1385.32 1575.82 1402.15C1515.91 1418.99 1441.32 1422.29 1357.01 1412.57C1188.4 1393.15 981.136 1321.71 775.221 1202.83C569.307 1083.94 403.81 940.168 302.684 803.859C252.12 735.703 217.679 669.454 202.3 609.149C186.923 548.851 190.618 494.563 216.221 450.218Z" stroke="white" stroke-width="2"/>
<path d="M244.934 400.479C270.537 356.134 315.704 325.79 375.613 308.958C435.527 292.123 510.122 288.825 594.429 298.537C763.039 317.96 970.3 389.398 1176.21 508.282C1382.13 627.167 1547.63 770.942 1648.75 907.251C1699.32 975.407 1733.76 1041.66 1749.14 1101.96C1764.51 1162.26 1760.82 1216.55 1735.22 1260.89C1709.61 1305.24 1664.45 1335.58 1604.54 1352.41C1544.62 1369.25 1470.03 1372.55 1385.72 1362.83C1217.11 1343.41 1009.85 1271.97 803.935 1153.09C598.021 1034.2 432.524 890.429 331.398 754.12C280.834 685.964 246.393 619.715 231.014 559.41C215.637 499.111 219.332 444.823 244.934 400.479Z" stroke="white" stroke-width="2"/>
<path d="M1735.22 499.948C1709.61 455.604 1664.45 425.26 1604.54 408.427C1544.62 391.593 1470.03 388.295 1385.72 398.007C1217.11 417.43 1009.85 488.867 803.937 607.752C598.022 726.637 432.525 870.412 331.398 1006.72C280.834 1074.88 246.393 1141.13 231.015 1201.43C215.638 1261.73 219.333 1316.02 244.935 1360.36C270.538 1404.71 315.705 1435.05 375.614 1451.88C435.528 1468.72 510.122 1472.02 594.429 1462.3C763.04 1442.88 970.302 1371.44 1176.22 1252.56C1382.13 1133.67 1547.63 989.899 1648.75 853.589C1699.32 785.434 1733.76 719.184 1749.14 658.88C1764.51 598.581 1760.82 544.293 1735.22 499.948Z" stroke="white" stroke-width="2"/>
<path d="M1706.51 450.216C1680.9 405.871 1635.74 375.527 1575.83 358.695C1515.91 341.861 1441.32 338.562 1357.01 348.274C1188.4 367.698 981.139 439.135 775.225 558.02C569.311 676.904 403.813 820.68 302.687 956.989C252.122 1025.14 217.681 1091.39 202.303 1151.7C186.926 1212 190.621 1266.29 216.223 1310.63C241.826 1354.98 286.993 1385.32 346.902 1402.15C406.816 1418.99 481.411 1422.28 565.717 1412.57C734.328 1393.15 941.59 1321.71 1147.5 1202.83C1353.42 1083.94 1518.92 940.166 1620.04 803.857C1670.61 735.701 1705.05 669.452 1720.43 609.147C1735.8 548.849 1732.11 494.561 1706.51 450.216Z" stroke="white" stroke-width="2"/>
<path d="M1677.79 400.478C1652.19 356.133 1607.02 325.789 1547.11 308.957C1487.2 292.122 1412.6 288.824 1328.3 298.536C1159.69 317.959 952.424 389.397 746.51 508.281C540.596 627.166 375.098 770.941 273.972 907.25C223.408 975.406 188.967 1041.66 173.588 1101.96C158.211 1162.26 161.906 1216.55 187.509 1260.89C213.111 1305.24 258.278 1335.58 318.187 1352.41C378.101 1369.25 452.696 1372.54 537.002 1362.83C705.613 1343.41 912.875 1271.97 1118.79 1153.09C1324.7 1034.2 1490.2 890.428 1591.33 754.119C1641.89 685.963 1676.33 619.714 1691.71 559.409C1707.09 499.11 1703.39 444.822 1677.79 400.478Z" stroke="white" stroke-width="2"/>
</g>
<defs>
<filter id="filter0_df_32_120" x="144.468" y="0" width="1633.79" height="1760.83" filterUnits="userSpaceOnUse" color-interpolation-filters="sRGB">
<feFlood flood-opacity="0" result="BackgroundImageFix"/>
<feColorMatrix in="SourceAlpha" type="matrix" values="0 0 0 0 0 0 0 0 0 0 0 0 0 0 0 0 0 0 127 0" result="hardAlpha"/>
<feOffset dy="4"/>
<feGaussianBlur stdDeviation="2"/>
<feComposite in2="hardAlpha" operator="out"/>
<feColorMatrix type="matrix" values="0 0 0 0 0 0 0 0 0 0 0 0 0 0 0 0 0 0 0.25 0"/>
<feBlend mode="normal" in2="BackgroundImageFix" result="effect1_dropShadow_32_120"/>
<feBlend mode="normal" in="SourceGraphic" in2="effect1_dropShadow_32_120" result="shape"/>
<feGaussianBlur stdDeviation="9.5" result="effect2_foregroundBlur_32_120"/>
</filter>
</defs>
</svg>
