<svg width="1555" height="304" viewBox="0 0 1555 304" fill="none" xmlns="http://www.w3.org/2000/svg">
<g clip-path="url(#clip0_32_753)">
<g opacity="0.7" clip-path="url(#clip1_32_753)">
<g filter="url(#filter0_df_32_753)">
<path d="M471.024 265.73C488.589 265.73 502.829 251.374 502.829 233.666C502.829 215.957 488.589 201.602 471.024 201.602C453.459 201.602 439.22 215.957 439.22 233.666C439.22 251.374 453.459 265.73 471.024 265.73Z" stroke="white" stroke-width="2.70664" stroke-miterlimit="10"/>
<path d="M1580.1 248.467C1597.67 248.467 1611.91 234.112 1611.91 216.403C1611.91 198.695 1597.67 184.339 1580.1 184.339C1562.54 184.339 1548.3 198.695 1548.3 216.403C1548.3 234.112 1562.54 248.467 1580.1 248.467Z" stroke="white" stroke-width="2.70664" stroke-miterlimit="10"/>
<path d="M1567.87 107.054C1585.43 107.054 1599.67 92.698 1599.67 74.9895C1599.67 57.2809 1585.43 42.9253 1567.87 42.9253C1550.3 42.9253 1536.06 57.2809 1536.06 74.9895C1536.06 92.698 1550.3 107.054 1567.87 107.054Z" stroke="white" stroke-width="2.70664" stroke-miterlimit="10"/>
<path d="M1314.25 107.054C1331.82 107.054 1346.06 92.698 1346.06 74.9895C1346.06 57.2809 1331.82 42.9253 1314.25 42.9253C1296.69 42.9253 1282.45 57.2809 1282.45 74.9895C1282.45 92.698 1296.69 107.054 1314.25 107.054Z" stroke="white" stroke-width="2.70664" stroke-miterlimit="10"/>
<path d="M1031.27 86.5C1048.83 86.5 1063.07 72.1444 1063.07 54.4358C1063.07 36.7272 1048.83 22.3716 1031.27 22.3716C1013.7 22.3716 999.461 36.7272 999.461 54.4358C999.461 72.1444 1013.7 86.5 1031.27 86.5Z" stroke="white" stroke-width="2.70664" stroke-miterlimit="10"/>
<path d="M915.47 86.5C933.035 86.5 947.274 72.1444 947.274 54.4358C947.274 36.7272 933.035 22.3716 915.47 22.3716C897.904 22.3716 883.665 36.7272 883.665 54.4358C883.665 72.1444 897.904 86.5 915.47 86.5Z" stroke="white" stroke-width="2.70664" stroke-miterlimit="10"/>
<path d="M807.009 86.5C824.574 86.5 838.813 72.1444 838.813 54.4358C838.813 36.7272 824.574 22.3716 807.009 22.3716C789.443 22.3716 775.204 36.7272 775.204 54.4358C775.204 72.1444 789.443 86.5 807.009 86.5Z" stroke="white" stroke-width="2.70664" stroke-miterlimit="10"/>
<path d="M1169.9 107.054C1187.47 107.054 1201.71 92.698 1201.71 74.9895C1201.71 57.2809 1187.47 42.9253 1169.9 42.9253C1152.34 42.9253 1138.1 57.2809 1138.1 74.9895C1138.1 92.698 1152.34 107.054 1169.9 107.054Z" stroke="white" stroke-width="2.70664" stroke-miterlimit="10"/>
<path d="M771.941 276.42C789.506 276.42 803.746 262.065 803.746 244.356C803.746 226.648 789.506 212.292 771.941 212.292C754.376 212.292 740.137 226.648 740.137 244.356C740.137 262.065 754.376 276.42 771.941 276.42Z" stroke="white" stroke-width="2.70664" stroke-miterlimit="10"/>
<path d="M912.204 300.262C929.769 300.262 944.008 285.906 944.008 268.198C944.008 250.489 929.769 236.133 912.204 236.133C894.639 236.133 880.399 250.489 880.399 268.198C880.399 285.906 894.639 300.262 912.204 300.262Z" stroke="white" stroke-width="2.70664" stroke-miterlimit="10"/>
<path d="M992.944 190.915C1010.51 190.915 1024.75 176.559 1024.75 158.85C1024.75 141.142 1010.51 126.786 992.944 126.786C975.379 126.786 961.14 141.142 961.14 158.85C961.14 176.559 975.379 190.915 992.944 190.915Z" stroke="white" stroke-width="2.70664" stroke-miterlimit="10"/>
<path d="M-23.9895 107.054C-6.42436 107.054 7.81498 92.698 7.81498 74.9895C7.81498 57.2809 -6.42436 42.9253 -23.9895 42.9253C-41.5546 42.9253 -55.7939 57.2809 -55.7939 74.9895C-55.7939 92.698 -41.5546 107.054 -23.9895 107.054Z" stroke="white" stroke-width="2.70664" stroke-miterlimit="10"/>
<path d="M95.0779 107.054C112.643 107.054 126.882 92.698 126.882 74.9895C126.882 57.2809 112.643 42.9253 95.0779 42.9253C77.5128 42.9253 63.2734 57.2809 63.2734 74.9895C63.2734 92.698 77.5128 107.054 95.0779 107.054Z" stroke="white" stroke-width="2.70664" stroke-miterlimit="10"/>
<path d="M267.962 139.121C285.527 139.121 299.766 124.765 299.766 107.056C299.766 89.3478 285.527 74.9922 267.962 74.9922C250.397 74.9922 236.157 89.3478 236.157 107.056C236.157 124.765 250.397 139.121 267.962 139.121Z" stroke="white" stroke-width="2.70664" stroke-miterlimit="10"/>
<path d="M367.452 74.9917C385.017 74.9917 399.256 60.636 399.256 42.9275C399.256 25.2189 385.017 10.8633 367.452 10.8633C349.887 10.8633 335.647 25.2189 335.647 42.9275C335.647 60.636 349.887 74.9917 367.452 74.9917Z" stroke="white" stroke-width="2.70664" stroke-miterlimit="10"/>
<path d="M-4.41699 216.404H334.831L509.347 39.6394V-37.6436" stroke="white" stroke-width="2.70664" stroke-miterlimit="10"/>
<path d="M771.94 276.421V357.815L633.306 496.76H197.829L94.2607 601.174" stroke="white" stroke-width="2.70664" stroke-miterlimit="10"/>
<path d="M63.2694 74.9922H7.81543" stroke="white" stroke-width="2.70664" stroke-miterlimit="10"/>
<path d="M245.943 84.0367L100.784 -62.3076H44.5146" stroke="white" stroke-width="2.70664" stroke-miterlimit="10"/>
<path d="M1337.08 51.9725L1450.43 -62.3076H1499.36" stroke="white" stroke-width="2.70664" stroke-miterlimit="10"/>
<path d="M1536.06 74.9922H1452.88L1312.61 216.404H1191.11L1053.29 77.4586" stroke="white" stroke-width="2.70664" stroke-miterlimit="10"/>
<path d="M493.854 210.647L762.154 -59.8437H1145.44L1368.07 -285.115" stroke="white" stroke-width="2.70664" stroke-miterlimit="10"/>
<path d="M1548.3 216.401H1282.45" stroke="white" stroke-width="2.70664" stroke-miterlimit="10"/>
<path d="M1508.34 472.095L1347.68 310.13L1139.73 308.485L1098.96 268.2H944.013" stroke="white" stroke-width="2.70664" stroke-miterlimit="10"/>
<path d="M367.453 359.46H495.486L694.468 158.853H961.136" stroke="white" stroke-width="2.70664" stroke-miterlimit="10"/>
<path d="M1284.89 -40.1108L1192.74 52.7931" stroke="white" stroke-width="2.70664" stroke-miterlimit="10"/>
<path d="M838.813 54.4385H883.666" stroke="white" stroke-width="2.70664" stroke-miterlimit="10"/>
</g>
<path d="M471.024 265.73C488.589 265.73 502.829 251.374 502.829 233.665C502.829 215.957 488.589 201.601 471.024 201.601C453.459 201.601 439.22 215.957 439.22 233.665C439.22 251.374 453.459 265.73 471.024 265.73Z" stroke="white" stroke-width="1.71" stroke-miterlimit="10"/>
<path d="M1580.1 248.467C1597.67 248.467 1611.91 234.112 1611.91 216.403C1611.91 198.695 1597.67 184.339 1580.1 184.339C1562.54 184.339 1548.3 198.695 1548.3 216.403C1548.3 234.112 1562.54 248.467 1580.1 248.467Z" stroke="white" stroke-width="1.71" stroke-miterlimit="10"/>
<path d="M1567.87 107.054C1585.43 107.054 1599.67 92.698 1599.67 74.9895C1599.67 57.2809 1585.43 42.9253 1567.87 42.9253C1550.3 42.9253 1536.06 57.2809 1536.06 74.9895C1536.06 92.698 1550.3 107.054 1567.87 107.054Z" stroke="white" stroke-width="1.71" stroke-miterlimit="10"/>
<path d="M1314.25 107.054C1331.82 107.054 1346.06 92.698 1346.06 74.9895C1346.06 57.2809 1331.82 42.9253 1314.25 42.9253C1296.69 42.9253 1282.45 57.2809 1282.45 74.9895C1282.45 92.698 1296.69 107.054 1314.25 107.054Z" stroke="white" stroke-width="1.71" stroke-miterlimit="10"/>
<path d="M1031.27 86.5C1048.83 86.5 1063.07 72.1444 1063.07 54.4358C1063.07 36.7272 1048.83 22.3716 1031.27 22.3716C1013.7 22.3716 999.461 36.7272 999.461 54.4358C999.461 72.1444 1013.7 86.5 1031.27 86.5Z" stroke="white" stroke-width="1.71" stroke-miterlimit="10"/>
<path d="M915.47 86.5C933.035 86.5 947.274 72.1444 947.274 54.4358C947.274 36.7272 933.035 22.3716 915.47 22.3716C897.904 22.3716 883.665 36.7272 883.665 54.4358C883.665 72.1444 897.904 86.5 915.47 86.5Z" stroke="white" stroke-width="1.71" stroke-miterlimit="10"/>
<path d="M807.009 86.5C824.574 86.5 838.813 72.1444 838.813 54.4358C838.813 36.7272 824.574 22.3716 807.009 22.3716C789.443 22.3716 775.204 36.7272 775.204 54.4358C775.204 72.1444 789.443 86.5 807.009 86.5Z" stroke="white" stroke-width="1.71" stroke-miterlimit="10"/>
<path d="M1169.9 107.054C1187.47 107.054 1201.71 92.698 1201.71 74.9895C1201.71 57.2809 1187.47 42.9253 1169.9 42.9253C1152.34 42.9253 1138.1 57.2809 1138.1 74.9895C1138.1 92.698 1152.34 107.054 1169.9 107.054Z" stroke="white" stroke-width="1.71" stroke-miterlimit="10"/>
<path d="M771.941 276.42C789.506 276.42 803.746 262.065 803.746 244.356C803.746 226.648 789.506 212.292 771.941 212.292C754.376 212.292 740.137 226.648 740.137 244.356C740.137 262.065 754.376 276.42 771.941 276.42Z" stroke="white" stroke-width="1.71" stroke-miterlimit="10"/>
<path d="M912.204 300.262C929.769 300.262 944.008 285.906 944.008 268.198C944.008 250.489 929.769 236.133 912.204 236.133C894.639 236.133 880.399 250.489 880.399 268.198C880.399 285.906 894.639 300.262 912.204 300.262Z" stroke="white" stroke-width="1.71" stroke-miterlimit="10"/>
<path d="M992.944 190.915C1010.51 190.915 1024.75 176.559 1024.75 158.85C1024.75 141.142 1010.51 126.786 992.944 126.786C975.379 126.786 961.14 141.142 961.14 158.85C961.14 176.559 975.379 190.915 992.944 190.915Z" stroke="white" stroke-width="1.71" stroke-miterlimit="10"/>
<path d="M-23.9895 107.054C-6.42436 107.054 7.81498 92.698 7.81498 74.9895C7.81498 57.2809 -6.42436 42.9253 -23.9895 42.9253C-41.5546 42.9253 -55.7939 57.2809 -55.7939 74.9895C-55.7939 92.698 -41.5546 107.054 -23.9895 107.054Z" stroke="white" stroke-width="1.71" stroke-miterlimit="10"/>
<path d="M95.0779 107.054C112.643 107.054 126.882 92.698 126.882 74.9895C126.882 57.2809 112.643 42.9253 95.0779 42.9253C77.5128 42.9253 63.2734 57.2809 63.2734 74.9895C63.2734 92.698 77.5128 107.054 95.0779 107.054Z" stroke="white" stroke-width="1.71" stroke-miterlimit="10"/>
<path d="M267.962 139.121C285.527 139.121 299.766 124.765 299.766 107.056C299.766 89.3478 285.527 74.9922 267.962 74.9922C250.397 74.9922 236.157 89.3478 236.157 107.056C236.157 124.765 250.397 139.121 267.962 139.121Z" stroke="white" stroke-width="1.71" stroke-miterlimit="10"/>
<path d="M367.452 74.9917C385.017 74.9917 399.256 60.636 399.256 42.9275C399.256 25.2189 385.017 10.8633 367.452 10.8633C349.887 10.8633 335.647 25.2189 335.647 42.9275C335.647 60.636 349.887 74.9917 367.452 74.9917Z" stroke="white" stroke-width="1.71" stroke-miterlimit="10"/>
<path d="M-4.41699 216.403H334.831L509.347 39.6389V-37.644" stroke="white" stroke-width="1.71" stroke-miterlimit="10"/>
<path d="M771.94 276.421V357.815L633.306 496.76H197.829L94.2607 601.174" stroke="white" stroke-width="1.71" stroke-miterlimit="10"/>
<path d="M63.2694 74.9922H7.81543" stroke="white" stroke-width="1.71" stroke-miterlimit="10"/>
<path d="M245.943 84.0367L100.784 -62.3076H44.5146" stroke="white" stroke-width="1.71" stroke-miterlimit="10"/>
<path d="M1337.08 51.9725L1450.43 -62.3076H1499.36" stroke="white" stroke-width="1.71" stroke-miterlimit="10"/>
<path d="M1536.06 74.9922H1452.88L1312.61 216.404H1191.11L1053.29 77.4586" stroke="white" stroke-width="1.71" stroke-miterlimit="10"/>
<path d="M493.854 210.647L762.154 -59.8437H1145.44L1368.07 -285.115" stroke="white" stroke-width="1.71" stroke-miterlimit="10"/>
<path d="M1548.3 216.401H1282.45" stroke="white" stroke-width="1.71" stroke-miterlimit="10"/>
<path d="M1508.34 472.095L1347.68 310.13L1139.73 308.485L1098.96 268.2H944.013" stroke="white" stroke-width="1.71" stroke-miterlimit="10"/>
<path d="M367.453 359.46H495.486L694.468 158.853H961.136" stroke="white" stroke-width="1.71" stroke-miterlimit="10"/>
<path d="M1284.89 -40.1108L1192.74 52.7931" stroke="white" stroke-width="1.71" stroke-miterlimit="10"/>
<path d="M838.813 54.438H883.666" stroke="white" stroke-width="1.71" stroke-miterlimit="10"/>
</g>
</g>
<defs>
<filter id="filter0_df_32_753" x="-98.5631" y="-660.961" width="1741.01" height="1754.73" filterUnits="userSpaceOnUse" color-interpolation-filters="sRGB">
<feFlood flood-opacity="0" result="BackgroundImageFix"/>
<feColorMatrix in="SourceAlpha" type="matrix" values="0 0 0 0 0 0 0 0 0 0 0 0 0 0 0 0 0 0 127 0" result="hardAlpha"/>
<feOffset dy="6.14465"/>
<feGaussianBlur stdDeviation="3.07233"/>
<feComposite in2="hardAlpha" operator="out"/>
<feColorMatrix type="matrix" values="0 0 0 0 0 0 0 0 0 0 0 0 0 0 0 0 0 0 0.25 0"/>
<feBlend mode="normal" in2="BackgroundImageFix" result="effect1_dropShadow_32_753"/>
<feBlend mode="normal" in="SourceGraphic" in2="effect1_dropShadow_32_753" result="shape"/>
<feGaussianBlur stdDeviation="14.5935" result="effect2_foregroundBlur_32_753"/>
</filter>
<clipPath id="clip0_32_753">
<rect width="1555" height="304" rx="6.22928" fill="white"/>
</clipPath>
<clipPath id="clip1_32_753">
<rect width="1559.16" height="1559.16" fill="white" transform="translate(-1.32324 -563.177)"/>
</clipPath>
</defs>
</svg>
